<?xml version="1.0" encoding="utf-8"?>
<!-- Generator: Adobe Illustrator 22.1.0, SVG Export Plug-In . SVG Version: 6.00 Build 0)  -->
<svg version="1.1" id="Ebene_1" xmlns="http://www.w3.org/2000/svg" xmlns:xlink="http://www.w3.org/1999/xlink" x="0px" y="0px"
	 viewBox="0 0 362 362" style="enable-background:new 0 0 362 362;" xml:space="preserve">
<style type="text/css">
	.st0{opacity:0.5;fill:#3366CC;}
	.st1{fill:#4B322D;}
	.st2{fill:#262E33;}
	.st3{fill:#3B4C5A;}
	.st4{fill:#3A2621;}
	.st5{fill:#3C4D5A;}
	.st6{fill:#2F4351;}
	.st7{fill:#EBB789;}
	.st8{fill:#262E32;}
	.st9{fill:#DADBDC;}
	.st10{fill:#E9B789;}
	.st11{fill:#D2A47A;}
	.st12{fill:#4D3C2C;}
	.st13{fill:#C79B74;}
	.st14{fill:#69523D;}
	.st15{fill:#67503B;}
	.st16{fill:#EBDBBE;}
	.st17{fill:#FE5C5C;}
	.st18{fill:#CD895A;}
	.st19{fill:#CEC3AE;}
	.st20{fill:#CF8A5B;}
	.st21{fill:#AE774F;}
	.st22{fill:#8D8981;}
	.st23{fill:#938170;}
	.st24{fill:#C3B6A0;}
	.st25{fill:#553925;}
	.st26{fill:#553A25;}
	.st27{fill:#AF754C;}
	.st28{fill:#563A25;}
	.st29{fill:#1F333C;}
	.st30{fill:#FEDDB4;}
	.st31{fill:#724133;}
	.st32{fill:#CF8B5B;}
	.st33{fill:#E5C7A4;}
	.st34{fill:#BB7C52;}
	.st35{fill:#D5E7EE;}
	.st36{fill:#CE8A5A;}
	.st37{fill:#17242B;}
	.st38{fill:#CF8A5A;}
	.st39{fill:#AE754C;}
	.st40{fill:#A9734E;}
	.st41{fill:#CA8759;}
	.st42{fill:#E5E5E5;}
	.st43{fill:#4A322D;}
	.st44{fill:#2A2F31;}
	.st45{fill:#EAB789;}
	.st46{fill:#EBB88A;}
	.st47{fill:#E9B688;}
	.st48{fill:#C69B75;}
	.st49{fill:#CEA279;}
	.st50{fill:#D0A37A;}
	.st51{fill:#EBB889;}
	.st52{fill:#EAB788;}
	.st53{fill:#614C38;}
	.st54{fill:#48392A;}
	.st55{fill:#B98A50;}
	.st56{fill:#B0E1FE;}
	.st57{fill:#AD5D29;}
	.st58{fill:#B48043;}
	.st59{fill:#AE5D29;}
	.st60{fill:#4A2811;}
	.st61{fill:#F2F3F3;}
	.st62{fill:#9D5425;}
	.st63{fill:#361D0C;}
	.st64{fill:#924E22;}
	.st65{fill:#482611;}
	.st66{fill:#492711;}
	.st67{fill:#D9BA7E;}
	.st68{fill:#929497;}
	.st69{fill:#D5B270;}
	.st70{fill:#B1955F;}
	.st71{fill:#272D2F;}
	.st72{fill:#533B2E;}
	.st73{fill:#51382D;}
	.st74{fill:#221814;}
	.st75{fill:#614335;}
	.st76{fill:#F0F0F0;}
	.st77{fill:#604235;}
	.st78{fill:#573C30;}
	.st79{fill:#281C16;}
	.st80{fill:#FA4E6B;}
	.st81{fill:#FEFEFE;}
	.st82{fill:#2C1B19;}
	.st83{fill:#3A4C5A;}
	.st84{fill:#4A312C;}
	.st85{fill:#614436;}
	.st86{fill:#EFEFEF;}
	.st87{fill:#624436;}
	.st88{fill:#E0E0E1;}
	.st89{fill:#1D1410;}
	.st90{fill:#EEEEEE;}
	.st91{fill:#D4B270;}
	.st92{fill:#FEDAB3;}
	.st93{fill:#FDDAB3;}
	.st94{fill:#E5C6A2;}
	.st95{fill:#B8A07B;}
	.st96{fill:#FDFDFC;}
	.st97{fill:#4F4337;}
	.st98{fill:#695A4A;}
	.st99{fill:#6A5B4B;}
	.st100{fill:#FC506D;}
	.st101{fill:#D6B897;}
	.st102{fill:#505050;}
	.st103{fill:#AD5D2A;}
	.st104{fill:#5199E3;}
	.st105{fill:#E6DFE0;}
	.st106{fill:#F1F2F3;}
	.st107{fill:#4580BF;}
	.st108{fill:#C9CBCD;}
	.st109{fill:#E8D8BB;}
	.st110{fill:#371E0E;}
	.st111{fill:#FBFBFB;}
	.st112{opacity:0.2;fill:#3366CC;}
	.st113{fill:#84A3E0;}
	.st114{fill:#C83306;}
	.st115{fill:#C73306;}
	.st116{fill:#272F33;}
	.st117{fill:#EDECEC;}
	.st118{fill:#FDD9B3;}
	.st119{fill:#D4B695;}
	.st120{fill:#E5C5A1;}
	.st121{fill:#21272B;}
	.st122{fill:#C9C9C9;}
	.st123{fill:#D6D6D6;}
	.st124{opacity:0.5;}
	.st125{fill:#3366CC;}
	.st126{fill-opacity:0.1;}
	.st127{fill:#E6E6E6;}
	.st128{fill:#F2F2F2;}
	.st129{fill-opacity:0.16;}
	.st130{fill:#FFFFFF;}
	.st131{fill-opacity:0.7;}
	.st132{fill-opacity:0.6;}
</style>
<g>
	<path class="st0" d="M362,181c0,58.2-27.4,109.9-70.1,143c0,0,0,0,0,0c-0.1,0.1-0.2,0.1-0.3,0.2c-18.1,14-38.9,24.6-61.5,31
		c-0.1,0-0.2,0.1-0.3,0.1c-6.3,1.8-12.6,3.2-19.1,4.3c-9.7,1.6-19.6,2.4-29.7,2.4c-10.2,0-20.2-0.9-30-2.5c0,0,0,0,0,0
		c-5.4-0.9-10.8-2-16-3.4c-1-0.3-2.1-0.5-3.1-0.8c-23.1-6.5-44.3-17.5-62.7-31.9c-0.1,0-0.1-0.1-0.2-0.1c-0.1-0.1-0.1-0.1-0.2-0.1
		C26.9,289.9,0,238.6,0,181C0,81,81,0,181,0S362,81,362,181z"/>
	<g>
		<path class="st42" d="M291.9,324C291.9,324,291.9,324.1,291.9,324c-0.1,0.1-0.2,0.2-0.3,0.3c-18.1,14-38.9,24.6-61.5,31
			c-0.1,0-0.2,0.1-0.3,0.1c-6.3,1.8-12.6,3.2-19.1,4.3c-9.7,1.6-19.6,2.4-29.7,2.4c-10.2,0-20.2-0.9-30-2.5c0,0,0,0,0,0
			c-5.4-0.9-10.8-2-16-3.4c-1-0.3-2.1-0.5-3.1-0.8c-23.1-6.5-44.3-17.5-62.7-31.9c-0.1,0-0.1-0.1-0.2-0.1c0.1-6.3,0.7-12.5,2.5-18.7
			c3.1-10.9,8-20.9,15.1-29.8c10.2-12.6,22.9-21.3,38.3-26.3c2.9-0.9,5.9-1.5,8.8-2.2c1.5,2.3,3.3,4.5,5.4,6.3
			c-0.1,0.5,0.2,0.9,0.4,1.4c2.3,4.4,6,7.5,9.6,10.7c9.3,8.4,18.6,16.9,27.9,25.3c2.2,2,4.6,2,6.8,0c4.1-3.7,8.1-7.4,12.2-11.1
			c5.8-5.3,11.8-10.4,17.5-15.8c2.8-2.6,6.2-4.9,7.3-9c2.8-2.1,5.5-4.2,7.4-7.3c4.7,0.3,9.1,2,13.4,3.8c9.3,3.8,17.5,9.1,24.9,15.9
			c12.9,12,20.7,26.8,24.2,43.9C291.7,314.9,291.9,319.5,291.9,324z"/>
		<path class="st43" d="M228.3,246.8c-1.9,3-4.6,5.2-7.4,7.3c-6.6,3-13.9,4.4-20.3,8.1c-6.6,3.8-14.4,4.1-22,3.8
			c-8.5-0.3-16.3-2.3-23.3-7.3c-0.6-0.4-1.3-0.9-1.9-1c-5.2-0.5-9.8-2.5-14.2-5.2c-2.2-1.8-3.9-3.9-5.4-6.3c-0.5-1.6-1.4-3-2.7-4.1
			c-6.1-5-8.8-11.9-10.7-19.2c-2-7.3-3.6-14.6-2.5-22.3c0.6-4-1.1-7.8-1.9-11.6c-1.2-5.4-2-10.8-2.5-16.3c0.3-2.8,0-5.6,0.3-8.3
			c0.8-7.1,2.4-14.1,3.2-21.1c0.2-0.5,0.4-1.1,0.5-1.6c0.5-0.5,0.5-1.8,1.7-1.4c1.1,0.4,0.7,1.4,0.7,2.1c-0.1,1.3-0.4,2.6-0.5,3.9
			c-0.6,5.6,1.9,10.7,2.4,16.1c0.1,0.2,0.2,0.4,0.3,0.5c0.1,0.3,0.1,0.7,0.2,1c-0.2,0.3-0.1,0.6,0.1,0.9c0.3,4.1,0.4,8.2,0.7,12.3
			c0.5,7.6,9.2,11.7,15.5,7.5c3.1-2.1,5.7-4.9,8.5-7.4c1-0.8,2.3-1.2,2.9-2.4c2.5-0.8,5-1.7,7.5-2.5c0.8,0,1.6,0,2.4-0.1
			c4.5-0.6,8.9-0.7,13.4,0.1c2.8,0.5,5.3,2.3,7.9,2.5c2.7,0.1,5.3-1.9,8.1-2.5c4.3-0.8,8.6-0.3,13-0.4c3,1,6,2,9,2.9
			c0.2,0,0.3,0,0.4,0.2c0.1,0.1,0.3,0.2,0.4,0.4c1.4,0.3,2.2,1.5,3.4,2.1c3,2.8,5.9,5.9,9.5,8c5.4,3.1,13.7-1.1,14.2-7.2
			c0.4-4.9,0.7-9.8,1-14.7c0.5-0.8,0.5-1.6,0.3-2.4c0-0.3,0.1-0.7,0.1-1c0.2-1.2,0.4-2.3,0.7-3.5c0.5-3.6,1-7.2,0.9-10.9
			c0.1-1.7,0.2-3.5,0.3-5.2c0.8,0,1.5,0,2.3-0.1c0.2,0.6,0.3,1.3,0.5,1.9c0,0.4,0,0.8,0,1.2c1.6,9.4,3.7,18.8,3.4,28.4
			c0.1,7.9-1.7,15.4-3.6,23c-0.8,3.2-0.4,6.4-0.3,9.5c0.3,10.7-2.7,20.7-7.2,30.3c-1.3,2.8-3.6,4.8-5.8,7
			C230.2,243.2,228.9,244.8,228.3,246.8z M206.6,198.9c0-5.4-2.8-9-8.1-10c-4.2-0.8-8.6-0.8-12.6-2.1c-3.5-1.2-6.4-0.9-9.8,0
			c-4.5,1.2-9.2,1.6-13.8,2.3c-2.2,0.3-3.7,1.5-4.9,3.4c-2.1,3.5-2.6,7.2-0.8,11c2.4,5,6.1,8.4,11.6,9.9c1.6,0.4,2.7,0.2,4-0.8
			c5.3-4.2,12.7-4,18,0.2c0.7,0.5,1.2,1,2.2,0.9C199.1,213.4,206.6,205.5,206.6,198.9z"/>
		<path class="st43" d="M117.1,133.5c-3-4.9-4.2-10.4-5-16c-1.7-12.5-0.6-24.9,3.9-36.8c2.2-5.9,5.8-10.8,11.4-14
			c0.9-0.5,1.8-1.2,1.8-2.5c-0.2-6.6,3.8-11.3,7.8-15.6C149.9,35,165.7,31.7,183.6,36c4.7,1.2,9.4,2.6,14.2,3.6
			c7.6,1.6,15,0.4,22-3.1c2.4-1.2,5-2.1,7.7-2.3c7.9-0.4,13.8,4.5,15.2,12.7c1.2,6.9,0,13.3-4.6,18.7c-0.9,1-0.2,1.4,0.3,1.9
			c6.8,7,10.9,15.4,11.8,24.9c1.2,12.1,1.3,24.3-4,35.8c-0.7,1.6-1.2,3.2-3,4c-0.2,0-0.3,0-0.5,0c-1.2-0.7-1.3-2-1.5-3.2
			c-1.1-5-2.1-9.9-3-14.9c-1.8-9.4-4.8-17.9-13-23.9c-3.3-2.4-6.2-5.7-8-9.5c-0.6-1.3-1.1-0.5-1.6-0.1c-4,2.9-8.5,4.9-13.3,6.3
			c-11.6,3.4-23.3,2.9-35,0.7c-7.7-1.4-14.9-4-20.8-9.3c-1.9-1.7-2.7-1.3-4.2,0.1c-10.1,10-18.1,21.2-20.2,35.7
			c-0.8,5.3-2.1,10.6-1.5,16.1c0.2,1.5,0.2,2.7-0.6,4C118.8,134.5,117.8,134.3,117.1,133.5z"/>
		<path class="st44" d="M117.1,133.5c0.8,0.8,1.7,1,2.8,0.9c1.9,0.5,3-0.1,4.3-1.8c6.2-8.4,14.6-12.2,25.1-11.2
			c3.6,0.4,6.7,1.8,10,3c1,1,2,1.8,3.5,2c2.2,3.1,5.4,5.4,7,9.3c2.9-3.7,6.3-5.7,10.7-5.7c4.5,0,7.9,2.3,10.6,5.8
			c1.4-2.4,2.8-4.5,4.5-6.4c0.9-1,2.3-1.6,2.7-3.1c1.4-0.2,2.5-1.1,3.5-2.1c0.8,0.1,1.4-0.4,2-0.7c5.6-2.5,11.3-3.2,17.3-1.8
			c6.9,1.6,12.4,5.4,16.3,11.4c1.2,1.9,2.9,1.2,4.4,1.2c1.4,0,0.8-1.3,1-2.1c0.2,0,0.3,0.1,0.5,0c0.2,1.6,1.1,2.1,2.7,2
			c2-0.1,4,0,4.8,2.5c-0.1,0.6-0.1,1.3-0.2,1.9c-1.5,2-3.8,1.3-5.8,1.6c-0.8,0-1.5,0-2.3,0.1c-0.7-0.1-1.8-0.7-1.5,0.7
			c0.3,1.5,0.2,3.2,1.2,4.5c0.1,3.7-0.4,7.3-0.9,10.9c-0.1-0.5-0.1-1-0.3-1.8c-0.2,0.6-0.3,0.8-0.4,1.1c-3.8,12-15.2,19.5-27.1,18.8
			c-0.5,0-1.2-0.2-1.4,0.6c-0.1-0.1-0.3-0.2-0.4-0.4c-0.1-0.2-0.1-0.7-0.4-0.2c-3-1-6-2-9-2.9c-0.2-0.3-0.3-0.6-0.5-0.8
			c-5-2.8-8.4-7.1-11.1-12.1c-2-4.8-2.6-9.9-2-15c0.1-0.9-0.1-1.8-0.2-2.6c-1-4.1-3.9-6.6-7.9-6.6c-3.8,0-6.8,2.3-7.8,6.1
			c-0.4,0.6-0.5,1.2-0.4,1.9c1,5.1,0.5,10-1.1,14.9c-3,6.4-7.4,11.5-13.8,14.8c-2.5,0.8-5,1.7-7.5,2.5c-1.1,0-2.3-0.1-3.4-0.1
			c-7.3-0.1-13.6-2.5-18.9-7.4c-2.2-2-3.8-4.6-5.7-7.4c-0.1,1.1-0.1,1.8-0.1,2.5c-0.5-5.4-3-10.5-2.4-16.1c0.1-1.3,0.4-2.6,0.5-3.9
			c0-0.7,0.4-1.7-0.7-2.1c-1.2-0.4-1.2,0.8-1.7,1.4c0.2-1.4-0.6-1.6-1.8-1.6c-1.9,0.1-3.8,0.2-5.2-1.5c-0.1-0.6-0.1-1.2-0.2-1.9
			c0.7-2.3,2.5-2.3,4.4-2.5C115.5,134.2,116.7,135,117.1,133.5z M155.9,128.4c-0.5-1-1.5-1.2-2.4-1.5c-3.7-1.3-7.5-1.6-11.4-1
			c-8,1.3-15.4,7.8-17.3,15.3c-1.4,3.9-1.5,7.9-0.5,11.9c2.2,9.5,10,16,20.2,17.1c8.6,0.9,17.7-4.6,21.7-12.9
			c3.9-8.4,2.1-18.6-4.6-25.2c-0.6-0.6-1.1-1.5-2.2-1.2C158.9,129,157.2,129,155.9,128.4z M205.1,128.4c-1.3,0.5-3,0.6-3.4,2.5
			c-1.3-0.2-1.9,0.8-2.6,1.6c-6.8,7.1-8.2,17.5-3.6,26.1c4.6,8.5,14,12.9,23.7,11.2c13-2.3,21.4-16.4,16.9-28.6
			c-2.3-9.3-12.8-16.7-22.4-15.6C210.7,126.1,207.5,126.1,205.1,128.4z"/>
		<path class="st45" d="M110.3,136.8c0.1,0.6,0.1,1.2,0.2,1.9c0,3.2,0.3,3.4,3.4,3.6c1.1,0,2.5-0.7,3,1c-0.8,7.1-2.5,14-3.2,21.1
			c-0.3,2.8-0.1,5.6-0.3,8.3c-4.1-2.6-6.3-6.2-6.4-11.1c0-5.3,0-10.6,0-15.9C106.9,142.3,108,139.4,110.3,136.8z"/>
		<path class="st45" d="M250.4,138.7c0.1-0.6,0.1-1.3,0.2-1.9c2.3,2.6,3.4,5.5,3.3,8.9c-0.1,5.7,0.1,11.3-0.1,17
			c-0.1,3.9-1.9,7.1-5.3,9.2c0.3-9.7-1.8-19-3.4-28.4c-0.1-0.4,0-0.8,0-1.2c0.6,0,1.3,0,1.9,0C250.1,142.2,250.4,141.9,250.4,138.7z
			"/>
		<path class="st46" d="M139.1,252.5c4.4,2.7,9,4.7,14.2,5.2c0.7,0.1,1.3,0.6,1.9,1c7,5,14.9,7,23.3,7.3c7.6,0.3,15.4,0,22-3.8
			c6.5-3.7,13.7-5.1,20.3-8.1c-1.1,4.1-4.5,6.4-7.3,9c-5.8,5.4-11.7,10.5-17.5,15.8c-4.1,3.7-8.1,7.4-12.2,11.1c-2.2,2-4.6,2-6.8,0
			c-9.3-8.4-18.5-16.9-27.9-25.3c-3.6-3.2-7.4-6.3-9.6-10.7C139.3,253.4,139,253,139.1,252.5z"/>
		<path class="st47" d="M206.6,198.9c0,6.7-7.6,14.5-14.2,14.9c-0.9,0-1.5-0.4-2.2-0.9c-5.3-4.3-12.7-4.4-18-0.2
			c-1.3,1-2.5,1.2-4,0.8c-5.5-1.5-9.2-4.9-11.6-9.9c-1.8-3.8-1.3-7.5,0.8-11c1.1-1.9,2.7-3.1,4.9-3.4c4.6-0.7,9.3-1.1,13.8-2.3
			c3.4-0.9,6.3-1.2,9.8,0c4,1.4,8.4,1.3,12.6,2.1C203.9,189.9,206.7,193.4,206.6,198.9z M180.2,199.1c3.2,0,6.4,0,9.6,0
			c2.6,0,4-1.3,4-3.3c-0.1-1.9-1.6-3.2-3.9-3.2c-6.3,0-12.6,0-18.9,0c-2.3,0-3.8,1.4-3.8,3.3c0,1.9,1.4,3.2,3.8,3.3
			C174,199.1,177.1,199.1,180.2,199.1z"/>
		<path class="st10" d="M240.1,163.4c-0.3,4.9-0.5,9.8-1,14.7c-0.6,6.2-8.8,10.3-14.2,7.2c-3.7-2.1-6.5-5.2-9.5-8
			c0.3-0.2,0.7-0.5,1-0.5c10.6-0.8,18.2-6,22.8-15.5c0.3-0.6,0.5-1.3,1.3-1.3c0,0.3-0.1,0.7-0.1,1
			C239.8,161.8,240.1,162.6,240.1,163.4z"/>
		<path class="st47" d="M122.1,164c-0.1-0.3-0.1-0.7-0.2-1c0.7,0,0.8,0.7,1.2,1.1c3.9,6,9.2,10,16.2,11.9c2.5,0.7,5.2,0.2,7.6,1.2
			c-2.8,2.5-5.4,5.3-8.5,7.4c-6.3,4.2-15,0.2-15.5-7.5c-0.3-4.1-0.4-8.2-0.7-12.3C122.2,164.6,122.2,164.3,122.1,164z"/>
		<path class="st48" d="M190.5,159c2.7,5,6.1,9.2,11.1,12.1c0.2,0.1,0.4,0.5,0.5,0.8c-4.3,0.2-8.6-0.4-13,0.4
			c-2.8,0.5-5.4,2.6-8.1,2.5c-2.6-0.1-5.1-2-7.9-2.5c-4.5-0.8-8.9-0.7-13.4-0.1c-0.8,0.1-1.6,0.1-2.4,0.1
			c6.3-3.3,10.8-8.3,13.8-14.8c0.4,0.3,0.3,0.6,0.2,1.1c-0.7,2-1.8,3.9-2.8,5.7c-1.4,2.6-3.7,4.4-5.9,7c1.2,0,1.9,0,2.7,0
			c1.4,0,2.7,0.2,2-2c-0.5-1.5,0.9-1.4,1.9-1.4c7.5,0,15.1,0,22.6,0c1.4,0,2.4,0.2,1.7,1.9c-0.4,1.1,0,1.6,1.1,1.5
			c1.1-0.1,2.2,0.3,3.5-0.3c-3.2-3-5.8-6.1-7.5-9.9C190.4,160.4,189.3,159.7,190.5,159z"/>
		<path class="st49" d="M240.5,160c-0.8,0-1,0.7-1.3,1.3c-4.7,9.5-12.2,14.7-22.8,15.5c-0.4,0-0.7,0.4-1,0.5c-1.2-0.6-2-1.8-3.4-2.1
			c0.2-0.8,0.9-0.6,1.4-0.6c12,0.7,23.4-6.8,27.1-18.8c0.1-0.3,0.2-0.5,0.4-1.1c0.1,0.8,0.2,1.3,0.3,1.8
			C241,157.7,240.8,158.8,240.5,160z"/>
		<path class="st50" d="M146.9,177.2c-2.4-1.1-5.1-0.5-7.6-1.2c-7-1.9-12.3-5.9-16.2-11.9c-0.3-0.5-0.4-1.1-1.2-1.1
			c-0.1-0.2-0.2-0.4-0.3-0.5c0-0.7,0.1-1.5,0.1-2.5c1.8,2.8,3.4,5.3,5.7,7.4c5.3,4.9,11.7,7.4,18.9,7.4c1.1,0,2.3,0.1,3.4,0.1
			C149.2,176.1,147.9,176.4,146.9,177.2z"/>
		<path class="st50" d="M116.9,143.3c-0.5-1.8-2-1-3-1c-3.1-0.1-3.4-0.4-3.4-3.6c1.4,1.7,3.3,1.6,5.2,1.5c1.1,0,1.9,0.2,1.8,1.6
			C117.3,142.3,117.1,142.8,116.9,143.3z"/>
		<path class="st49" d="M250.4,138.7c0,3.1-0.3,3.5-3.4,3.5c-0.6,0-1.3,0-1.9,0c-0.2-0.6-0.3-1.3-0.5-1.9
			C246.6,140,248.9,140.7,250.4,138.7z"/>
		<path class="st48" d="M242.1,145.6c-1-1.3-0.9-3-1.2-4.5c-0.3-1.4,0.8-0.8,1.5-0.7C242.3,142.1,242.2,143.9,242.1,145.6z"/>
		<path class="st49" d="M240.1,163.4c0-0.8-0.3-1.7,0.3-2.4C240.6,161.9,240.6,162.7,240.1,163.4z"/>
		<path class="st50" d="M122.1,164c0,0.3,0.1,0.6,0.1,0.9C122,164.7,121.9,164.4,122.1,164z"/>
		<path class="st49" d="M211.1,174.7c0.4-0.5,0.3,0,0.4,0.2C211.4,174.8,211.3,174.7,211.1,174.7z"/>
		<path class="st51" d="M159.2,124.4c-3.3-1.2-6.4-2.7-10-3c-10.5-1-18.9,2.8-25.1,11.2c-1.2,1.7-2.4,2.2-4.3,1.8
			c0.8-1.2,0.8-2.5,0.6-4c-0.6-5.4,0.7-10.7,1.5-16.1c2.1-14.5,10.1-25.7,20.2-35.7c1.5-1.5,2.4-1.8,4.2-0.1
			c5.9,5.3,13.1,7.9,20.8,9.3c11.7,2.2,23.4,2.7,35-0.7c4.7-1.4,9.2-3.3,13.3-6.3c0.5-0.4,1-1.2,1.6,0.1c1.8,3.9,4.7,7.1,8,9.5
			c8.2,6,11.3,14.5,13,23.9c0.9,5,1.9,10,3,14.9c0.2,1.1,0.3,2.5,1.5,3.2c-0.2,0.8,0.4,2.1-1,2.1c-1.5,0-3.2,0.7-4.4-1.2
			c-3.9-6-9.4-9.7-16.3-11.4c-6-1.4-11.7-0.7-17.3,1.8c-0.7,0.3-1.2,0.8-2,0.7c-0.4-1.2-0.7-2.3-1.1-3.5c-0.4-1.3-1.2-2.1-2.7-1.9
			c-1.5,0.3-1.9,1.4-1.6,2.8c0.4,1.7,0.7,3.3,2,4.6c-0.3,1.5-1.8,2.1-2.7,3.1c-1.7,1.9-3.1,4-4.5,6.4c-2.7-3.6-6.1-5.8-10.6-5.8
			c-4.4,0-7.8,2-10.7,5.7c-1.7-3.9-4.8-6.2-7-9.3c1.3-1.3,1.7-3.1,2-4.8c0.2-1.3-0.3-2.2-1.7-2.5c-1.2-0.3-2.1,0.2-2.5,1.4
			C160.1,121.8,159.7,123.1,159.2,124.4z"/>
		<path class="st52" d="M236.1,141.3c4.4,12.1-3.9,26.2-16.9,28.6c-9.6,1.7-19.1-2.7-23.7-11.2c-4.7-8.6-3.3-19,3.6-26.1
			c0.7-0.7,1.3-1.8,2.6-1.6c5.8,6.1,17.9,8.8,25.7,5.6c1.3-0.5,2.1-1.2,2.1-2.7c2.5,1.1,3.7,3.3,5,5.4
			C234.9,140,235,141.1,236.1,141.3z M224.9,149.7c0.1-1-0.3-2.1-1-3.2c-5-7.4-18.5-6.8-22.7,1c-0.3,0.6-1,1.3-0.2,2
			c0.7,0.6,1.4,0,1.9-0.5c2.3-1.6,4.8-2.5,7.5-2.9c1.7-0.3,2.4,0,1.6,2c-1.1,2.7-0.2,5.1,1.9,6.9c2.1,1.9,4.7,2.3,7.3,1.1
			C223.8,154.9,225,152.8,224.9,149.7z"/>
		<path class="st52" d="M159.3,130.9c1.1-0.3,1.6,0.6,2.2,1.2c6.7,6.6,8.6,16.8,4.6,25.2c-3.9,8.4-13,13.8-21.7,12.9
			c-10.2-1-17.9-7.6-20.2-17.1c-0.9-4-0.9-8,0.5-11.9c1.1-0.2,1.2-1.2,1.6-2c1.3-2.1,2.6-4.4,5.1-5.4c0,1.6,1,2.4,2.3,2.7
			C143.4,139.4,151.9,137.6,159.3,130.9z M148,146.2c-0.3,1-0.5,1.6-0.7,2.2c-0.8,3.3,0.6,6.3,3.6,7.7c2.8,1.3,6.2,0.5,8.1-2
			c2-2.6,1.8-6.1-0.5-8.6c-5.8-6.3-16.5-5.8-21.5,1.2c-0.6,0.8-1.6,1.7-0.8,2.6c0.9,1.1,1.7-0.2,2.5-0.6
			C141.5,147.1,144.5,146.1,148,146.2z"/>
		<path class="st51" d="M190.5,159c-1.2,0.8-0.1,1.5,0.1,2.1c1.7,3.8,4.3,6.9,7.5,9.9c-1.3,0.6-2.4,0.2-3.5,0.3
			c-1.1,0.1-1.5-0.4-1.1-1.5c0.6-1.7-0.4-1.9-1.7-1.9c-7.5,0-15.1,0-22.6,0c-0.9,0-2.4-0.2-1.9,1.4c0.7,2.3-0.6,2.1-2,2
			c-0.7,0-1.4,0-2.7,0c2.1-2.5,4.5-4.3,5.9-7c1-1.9,2.1-3.7,2.8-5.7c0.1-0.4,0.2-0.8-0.2-1.1c1.5-4.9,2.1-9.8,1.1-14.9
			c-0.1-0.7,0-1.3,0.4-1.9c1.1,0,1.6-1,2.3-1.6c2.9-2.8,6.6-3.2,9.9-0.9c1.2,0.9,2.3,2,3.4,3c0.1,0.9,0.3,1.8,0.2,2.6
			C187.9,149.1,188.5,154.1,190.5,159z"/>
		<path class="st53" d="M229.4,133.9c0,1.4-0.8,2.1-2.1,2.7c-7.8,3.1-19.9,0.5-25.7-5.6c0.4-1.9,2.1-1.9,3.4-2.5
			c0.6,0.4,1.3,0.8,1.9,1.1c6.1,4.3,12.7,5.2,19.8,2.7C228,132.3,229,132.6,229.4,133.9z"/>
		<path class="st53" d="M159.3,130.9c-7.4,6.7-15.9,8.5-25.4,5.7c-1.3-0.4-2.4-1.1-2.3-2.7c0.5-0.9,1.1-1.5,2.1-1.7
			c0.9,0.2,1.7,0.5,2.6,0.7c6.4,1.7,12.3,0.4,17.7-3.4c0.6-0.4,1.3-0.7,1.9-1.1C157.2,129,158.9,129,159.3,130.9z"/>
		<path class="st50" d="M229.4,133.9c-0.4-1.3-1.5-1.6-2.7-1.6c0-0.6,0-1.1-0.6-1.4c-6.2-3.5-12.6-4.1-19.2-1.3
			c-0.6-0.4-1.3-0.8-1.9-1.1c2.5-2.3,5.6-2.4,8.7-2.7c9.5-1.1,20.1,6.2,22.4,15.6c-1.1-0.1-1.2-1.2-1.6-1.9
			C233.2,137.2,231.9,135,229.4,133.9z"/>
		<path class="st49" d="M155.9,128.4c-0.6,0.4-1.3,0.7-1.9,1.1c-5.6-2.7-11.2-2.1-16.7,0.1c-1.3,0.5-3.1,0.7-3.6,2.6
			c-1,0.2-1.7,0.8-2.1,1.7c-2.5,1-3.7,3.3-5.1,5.4c-0.5,0.7-0.5,1.8-1.6,2c1.8-7.5,9.2-14,17.3-15.3c3.9-0.6,7.7-0.3,11.4,1
			C154.4,127.3,155.4,127.4,155.9,128.4z"/>
		<path class="st50" d="M188.3,141.3c-1.1-1-2.2-2.1-3.4-3c-3.3-2.3-7-2-9.9,0.9c-0.7,0.7-1.2,1.6-2.3,1.6c1-3.8,3.9-6.1,7.8-6.1
			C184.3,134.7,187.3,137.2,188.3,141.3z"/>
		<path class="st53" d="M198.2,126.5c-1.3-1.3-1.6-3-2-4.6c-0.3-1.3,0.1-2.5,1.6-2.8c1.5-0.3,2.3,0.5,2.7,1.9
			c0.4,1.2,0.7,2.3,1.1,3.5C200.7,125.4,199.6,126.2,198.2,126.5z"/>
		<path class="st53" d="M159.2,124.4c0.4-1.3,0.9-2.6,1.3-3.9c0.4-1.2,1.3-1.7,2.5-1.4c1.3,0.3,1.9,1.2,1.7,2.5
			c-0.3,1.7-0.7,3.5-2,4.8C161.3,126.2,160.2,125.4,159.2,124.4z"/>
		<path class="st54" d="M180.2,199.1c-3.1,0-6.2,0-9.3,0c-2.4,0-3.8-1.3-3.8-3.3c0-1.9,1.5-3.2,3.8-3.3c6.3,0,12.6,0,18.9,0
			c2.3,0,3.8,1.3,3.9,3.2c0.1,2-1.4,3.3-4,3.3C186.6,199.1,183.4,199.1,180.2,199.1z"/>
		<path class="st53" d="M224.9,149.7c0,3.1-1.1,5.2-3.7,6.5c-2.7,1.3-5.2,0.8-7.3-1.1c-2.1-1.8-3-4.2-1.9-6.9c0.8-2,0.1-2.3-1.6-2
			c-2.7,0.4-5.2,1.3-7.5,2.9c-0.6,0.4-1.2,1.1-1.9,0.5c-0.7-0.6-0.1-1.4,0.2-2c4.3-7.8,17.7-8.4,22.7-1
			C224.6,147.6,225,148.7,224.9,149.7z"/>
		<path class="st53" d="M148,146.2c-3.5-0.1-6.5,0.9-9.3,2.6c-0.8,0.5-1.6,1.7-2.5,0.6c-0.7-0.9,0.3-1.8,0.8-2.6
			c5-6.9,15.7-7.5,21.5-1.2c2.2,2.4,2.4,6,0.5,8.6c-1.9,2.5-5.3,3.4-8.1,2c-3-1.4-4.4-4.5-3.6-7.7
			C147.5,147.8,147.7,147.2,148,146.2z"/>
		<path class="st47" d="M207,129.6c6.6-2.8,13-2.2,19.2,1.3c0.6,0.3,0.7,0.9,0.6,1.4C219.7,134.8,213.1,133.8,207,129.6z"/>
		<path class="st47" d="M133.7,132.2c0.5-1.9,2.3-2.1,3.6-2.6c5.5-2.2,11.1-2.8,16.7-0.1c-5.4,3.8-11.3,5-17.7,3.4
			C135.4,132.7,134.5,132.4,133.7,132.2z"/>
	</g>
</g>
</svg>
