<?xml version="1.0" encoding="utf-8"?>
<!-- Generator: Adobe Illustrator 22.1.0, SVG Export Plug-In . SVG Version: 6.00 Build 0)  -->
<svg version="1.1" id="Ebene_1" xmlns="http://www.w3.org/2000/svg" xmlns:xlink="http://www.w3.org/1999/xlink" x="0px" y="0px"
	 viewBox="0 0 362 362" style="enable-background:new 0 0 362 362;" xml:space="preserve">
<style type="text/css">
	.st0{opacity:0.5;fill:#3366CC;}
	.st1{fill:#4B322D;}
	.st2{fill:#262E33;}
	.st3{fill:#3B4C5A;}
	.st4{fill:#3A2621;}
	.st5{fill:#3C4D5A;}
	.st6{fill:#2F4351;}
	.st7{fill:#EBB789;}
	.st8{fill:#262E32;}
	.st9{fill:#DADBDC;}
	.st10{fill:#E9B789;}
	.st11{fill:#D2A47A;}
	.st12{fill:#4D3C2C;}
	.st13{fill:#C79B74;}
	.st14{fill:#69523D;}
	.st15{fill:#67503B;}
	.st16{fill:#EBDBBE;}
	.st17{fill:#FE5C5C;}
	.st18{fill:#CD895A;}
	.st19{fill:#CEC3AE;}
	.st20{fill:#CF8A5B;}
	.st21{fill:#AE774F;}
	.st22{fill:#8D8981;}
	.st23{fill:#938170;}
	.st24{fill:#C3B6A0;}
	.st25{fill:#553925;}
	.st26{fill:#553A25;}
	.st27{fill:#AF754C;}
	.st28{fill:#563A25;}
	.st29{fill:#1F333C;}
	.st30{fill:#FEDDB4;}
	.st31{fill:#724133;}
	.st32{fill:#CF8B5B;}
	.st33{fill:#E5C7A4;}
	.st34{fill:#BB7C52;}
	.st35{fill:#D5E7EE;}
	.st36{fill:#CE8A5A;}
	.st37{fill:#17242B;}
	.st38{fill:#CF8A5A;}
	.st39{fill:#AE754C;}
	.st40{fill:#A9734E;}
	.st41{fill:#CA8759;}
	.st42{fill:#E5E5E5;}
	.st43{fill:#4A322D;}
	.st44{fill:#2A2F31;}
	.st45{fill:#EAB789;}
	.st46{fill:#EBB88A;}
	.st47{fill:#E9B688;}
	.st48{fill:#C69B75;}
	.st49{fill:#CEA279;}
	.st50{fill:#D0A37A;}
	.st51{fill:#EBB889;}
	.st52{fill:#EAB788;}
	.st53{fill:#614C38;}
	.st54{fill:#48392A;}
	.st55{fill:#B98A50;}
	.st56{fill:#B0E1FE;}
	.st57{fill:#AD5D29;}
	.st58{fill:#B48043;}
	.st59{fill:#AE5D29;}
	.st60{fill:#4A2811;}
	.st61{fill:#F2F3F3;}
	.st62{fill:#9D5425;}
	.st63{fill:#361D0C;}
	.st64{fill:#924E22;}
	.st65{fill:#482611;}
	.st66{fill:#492711;}
	.st67{fill:#D9BA7E;}
	.st68{fill:#929497;}
	.st69{fill:#D5B270;}
	.st70{fill:#B1955F;}
	.st71{fill:#272D2F;}
	.st72{fill:#533B2E;}
	.st73{fill:#51382D;}
	.st74{fill:#221814;}
	.st75{fill:#614335;}
	.st76{fill:#F0F0F0;}
	.st77{fill:#604235;}
	.st78{fill:#573C30;}
	.st79{fill:#281C16;}
	.st80{fill:#FA4E6B;}
	.st81{fill:#FEFEFE;}
	.st82{fill:#2C1B19;}
	.st83{fill:#3A4C5A;}
	.st84{fill:#4A312C;}
	.st85{fill:#614436;}
	.st86{fill:#EFEFEF;}
	.st87{fill:#624436;}
	.st88{fill:#E0E0E1;}
	.st89{fill:#1D1410;}
	.st90{fill:#EEEEEE;}
	.st91{fill:#D4B270;}
	.st92{fill:#FEDAB3;}
	.st93{fill:#FDDAB3;}
	.st94{fill:#E5C6A2;}
	.st95{fill:#B8A07B;}
	.st96{fill:#FDFDFC;}
	.st97{fill:#4F4337;}
	.st98{fill:#695A4A;}
	.st99{fill:#6A5B4B;}
	.st100{fill:#FC506D;}
	.st101{fill:#D6B897;}
	.st102{fill:#505050;}
	.st103{fill:#AD5D2A;}
	.st104{fill:#5199E3;}
	.st105{fill:#E6DFE0;}
	.st106{fill:#F1F2F3;}
	.st107{fill:#4580BF;}
	.st108{fill:#C9CBCD;}
	.st109{fill:#E8D8BB;}
	.st110{fill:#371E0E;}
	.st111{fill:#FBFBFB;}
	.st112{opacity:0.2;fill:#3366CC;}
	.st113{fill:#84A3E0;}
	.st114{fill:#C83306;}
	.st115{fill:#C73306;}
	.st116{fill:#272F33;}
	.st117{fill:#EDECEC;}
	.st118{fill:#FDD9B3;}
	.st119{fill:#D4B695;}
	.st120{fill:#E5C5A1;}
	.st121{fill:#21272B;}
	.st122{fill:#C9C9C9;}
	.st123{fill:#D6D6D6;}
	.st124{opacity:0.5;}
	.st125{fill:#3366CC;}
	.st126{fill-opacity:0.1;}
	.st127{fill:#E6E6E6;}
	.st128{fill:#F2F2F2;}
	.st129{fill-opacity:0.16;}
	.st130{fill:#FFFFFF;}
	.st131{fill-opacity:0.7;}
	.st132{fill-opacity:0.6;}
</style>
<g>
	<path class="st0" d="M362,181c0,58.2-27.5,110-70.1,143.1c-0.1,0.1-0.2,0.2-0.3,0.3c-12.2,9.4-25.6,17.3-40,23.4
		c-6.9,2.9-14,5.4-21.4,7.5c-0.1,0-0.2,0.1-0.3,0.1c-6.3,1.8-12.6,3.2-19.1,4.3c-9.7,1.6-19.6,2.4-29.7,2.4c-10.2,0-20.2-0.9-30-2.5
		c0,0,0,0,0,0c-5.4-0.9-10.8-2-16-3.4c-1-0.3-2.1-0.5-3.1-0.8c-8.3-2.3-16.3-5.3-24.1-8.7c-14-6.2-27-14.1-38.9-23.5
		c-0.4-0.3-0.7-0.6-1.1-0.9C26.5,289,0,238.1,0,181C0,81,81,0,181,0S362,81,362,181z"/>
	<g>
		<path class="st55" d="M96.8,138.5c-6.1-1-8.9-5.1-10.1-10.7c-1.3-5.9,1.5-12.9,6.3-15.9c0.4-0.2,0.7-0.6,1.1-0.6
			c3.9-0.1,4.1-3,4.9-5.8c9.9-32.8,31.4-53.9,65.1-60.6c30.2-6,56.2,3.3,77.2,25.7c12,12.8,19.1,28.1,20.8,45.6
			c0.8,8.5,0.2,17.2,0.2,25.7c-1.1,0-2.3-0.3-3.4-0.3c-2.1,0-3.9-1.6-6.1-0.7c-2.3-2-5.4-2.4-8-3.7c-9.4-4.6-17.6-10.9-24.6-18.6
			c-4.2-4.6-7.9-9.4-11.2-14.7c-2.9-4.6-5.5-9.3-7.6-14.4c-0.2-0.6-0.3-1.4-1.2-1.4c-0.7,0-0.7,0.8-0.9,1.3
			c-3.7,8.5-9.2,15.6-16.8,20.9c-3.1,2.2-6.1,4.5-9.9,5.3l0,0c0.1-0.4,0.2-0.8,0.4-1.1c4.3-5.4,7.7-11.4,10.7-17.7
			c0.3-0.6,1-1.3,0.5-2.3c-0.4,0.4-0.7,0.6-1,0.9c-8.4,8.8-18,16-28.3,22.4c-2.1,1.3-4.5,2-6.1,4.1c-6.1,2.9-12.2,5.7-18.4,8.6
			c-6.9,2.2-13.8,4.3-20.7,6.5C105.4,137,101.2,138.7,96.8,138.5z"/>
		<path class="st56" d="M251.5,257.2c-0.2-0.9-1-1.1-1.6-1.4c-2.9-1.4-5.7-2.9-8.7-4.1c-6.1-2.4-12.3-4.6-19-4.8c0,15.7,0,31.4,0,47
			c0,1.9-0.4,2.5-2.4,2.5c-26.7-0.1-53.5-0.1-80.2,0c-2,0-2.5-0.5-2.5-2.5c0.1-15.7,0-31.4,0-47c-1,0-2-0.1-2.9,0
			c-6.6,1.3-13.1,3.1-19.1,6c-2.5,1.2-5.4,1.9-7.3,4.2v89.3c7.8,3.4,15.8,6.4,24.1,8.7c1,0.3,2.1,0.6,3.1,0.8
			c5.2,1.4,10.6,2.5,16,3.4c0,0,0,0,0,0c9.8,1.6,19.8,2.5,30,2.5c10.1,0,20-0.8,29.7-2.4c6.5-1.1,12.9-2.5,19.1-4.3
			c0.1,0,0.2,0,0.3-0.1c7.3-2.1,14.5-4.6,21.4-7.5C251.5,320.7,251.5,280.9,251.5,257.2z M122.3,311.9c-3.2,0-5.2-2.1-5.2-5.5
			c0-3,2.3-5.4,5.2-5.4c3.2,0,5.8,2.6,5.8,5.8C128,309.7,125.6,311.9,122.3,311.9z M236.8,311.9c-3.2,0-5.7-2.4-5.6-5.6
			c0.1-2.9,2.7-5.4,5.7-5.4c3,0,5.3,2.4,5.3,5.6C242.1,309.8,240,311.9,236.8,311.9z"/>
		<path class="st57" d="M222.2,247c0,15.7,0,31.4,0.1,47c0,1.9-0.4,2.5-2.4,2.5c-26.7-0.1-53.5-0.1-80.2,0c-2,0-2.5-0.5-2.5-2.5
			c0.1-15.7,0-31.4,0-47c3.7-0.7,7.4-0.9,11.1-0.9c4.6,0,4.6,0,4.6-4.7c0-1.7,0-3.5,0-5.2c0-0.5,0.1-1.1,0.1-1.6
			c0.5,0.2,0.9,0.3,1.4,0.5c7,3.4,14.4,5,22.1,5.4c8.9,0.5,17.7-0.9,26-4.3c1.3-0.5,2.5-1.4,4-1.1c0,0.4,0.1,0.8,0.1,1.1
			c0,2.5,0.1,5,0,7.4c-0.1,1.9,0.4,2.6,2.4,2.5C213.3,246,217.8,246.2,222.2,247z"/>
		<path class="st58" d="M152.9,234.6c0,0.5-0.1,1.1-0.1,1.6c-9.3,0-18.7-0.1-28-0.1c-6.5,0-13.1-0.3-19.6,0.1
			c-3.9,0.2-8.2-4-8.5-7.5c-0.1-0.8-0.1-1.6-0.1-2.5c0-28.7,0-57.5,0-86.2c0-0.5,0-1,0.1-1.5c4.4,0.2,8.6-1.4,13-1.5
			c-2.8,3.4-4.1,7.4-4,11.8c0.1,4.1,0,8.2,0,12.4c0,6.4,3.6,11.2,9.7,13c1.2,0.4,2.1,1,2.2,2.3c0.8,8.2,3.4,15.7,7.4,22.8
			c5.8,10.3,13.6,18.7,24,24.5c1.4,0.8,3.1,1.2,4.2,2.4C153.5,228.9,152.5,231.7,152.9,234.6z"/>
		<path class="st57" d="M291.5,324.3c-12.2,9.4-25.6,17.3-40,23.4c0-27,0-66.8,0-90.5c7.5,3.9,13.8,9.3,19.4,15.5
			C284,287.6,291,304.8,291.5,324.3z"/>
		<path class="st59" d="M107.7,257.3v89.3c-14-6.2-27-14.1-38.9-23.5c-0.4-0.3-0.7-0.6-1.1-0.9c0.9-12.8,4.2-25,11.1-36.5
			c7-11.6,16.2-21,27.8-28C107,257.5,107.4,257.4,107.7,257.3z"/>
		<path class="st58" d="M206.5,236.2c0-0.4-0.1-0.8-0.1-1.1c0-3.1,0-6.3,0-9.4c1,0.1,1.8-0.4,2.6-0.8c3.8-2.1,7.4-4.5,10.8-7.3
			c8.5-6.8,14.3-15.4,18.5-25.3c1.1-2.6,2-5.3,2.4-8.1c0.3-2.4,1.1-4.8,1-7.3c0-0.6,0.8-2.1,2.2-2.6c7.7-3,9.9-6.6,9.6-14.8
			c-0.2-6.2,0.5-12.5-0.5-18.7c2.1-0.8,4,0.7,6.1,0.7c1.1,0,2.2,0.3,3.4,0.3c0,9.3,0.1,18.7,0.1,28c0,10.9,0,21.8-0.1,32.7
			c0,11.4-5.4,20.1-14.2,26.7c-5.9,4.5-12.6,7-20.2,6.8C220.8,235.9,213.6,236.1,206.5,236.2z"/>
		<path class="st57" d="M253.5,159.6c-0.2-6.2,0.5-12.5-0.5-18.7c-2.3-2-5.3-2.4-8-3.7c-9.4-4.6-17.6-10.9-24.6-18.6
			c-4.2-4.6-7.9-9.4-11.2-14.6c-2.9-4.6-5.5-9.4-7.6-14.4c-0.2-0.6-0.3-1.4-1.2-1.4c-0.7,0-0.7,0.8-0.9,1.3
			c-3.7,8.5-9.2,15.6-16.8,20.9c-3.1,2.2-6.1,4.5-9.9,5.3c-0.1,0.1-0.2,0.1-0.2,0.2c0.1-0.1,0.1-0.2,0.2-0.2
			c0.2-0.4,0.2-0.8,0.5-1.1c4.3-5.4,7.7-11.5,10.7-17.7c0.3-0.6,1-1.3,0.5-2.3c-0.4,0.4-0.7,0.6-1,0.9c-8.4,8.8-18,16-28.3,22.4
			c-2.1,1.3-4.5,2-6.1,4.1c3.9,0.2,7.7,1,11.1,2.8c0.4,0.2,0.9,0.4,1.3,0.7c0.9,0.8,2.7,1.4,2.3,2.6s-2.1,0.5-3.1,0.4
			c-8.6-0.3-17,0.6-25.3,3c-1.6,0.5-3.2,1.2-4.8,1.8c-0.6-1-0.1-2,0.1-2.9c-6.9,2.2-13.8,4.3-20.7,6.5c-2.8,3.4-4.1,7.4-4,11.8
			c0.1,4.1,0,8.2,0,12.4c0,6.4,3.6,11.2,9.7,13c1.3,0.4,2.1,1,2.2,2.3c0.8,8.2,3.4,15.7,7.4,22.8c5.8,10.3,13.6,18.7,24,24.5
			c1.4,0.8,3.1,1.2,4.2,2.4c4.2,1,8.2,2.8,12.5,3.8c12.4,2.7,24.6,1.9,36.5-2.7c1.4-0.5,2.8-1,4.1-1.6c1,0.1,1.8-0.4,2.6-0.8
			c3.8-2.1,7.4-4.5,10.8-7.3c8.5-6.8,14.3-15.4,18.5-25.3c1.1-2.6,2-5.3,2.4-8c0.3-2.4,1.1-4.8,1-7.3c0-0.6,0.8-2.1,2.2-2.6
			C251.6,171.3,253.8,167.8,253.5,159.6z M158.9,150.6c-0.7,0.6-1.3-0.4-1.9-0.8c-5.6-3.9-13.6-4-19.6-0.2c-0.7,0.4-1.4,1.4-2.1,0.8
			c-0.9-0.8-0.1-1.8,0.4-2.6c2.4-3.7,6.6-5.9,12.8-5.9c3.4,0.2,7.5,1.9,10.1,6.3C159.2,148.9,159.8,149.9,158.9,150.6z M169.1,168.7
			c3.5,0,7.1,0,10.6,0c3.8,0,7.6,0,11.4,0c1.8,0,2.2,0.6,1.6,2.2c-1.1,3-3.6,4.3-6.3,5.5c-5.6,2.6-14.2,1.2-18.2-3
			c-0.4-0.4-0.8-0.9-1-1.4C165.6,169.3,166,168.7,169.1,168.7z M195.1,192.6c-1.4,7.1-7.3,12.6-14.4,13.2c-7,0.6-13.9-4.2-16.1-11
			c0-0.1-0.1-0.2-0.1-0.2c-1.3-4.5-1.3-4.5,3.2-4.5h11.8c4.5,0,8.9,0.1,13.4,0C195,189.9,195.5,190.5,195.1,192.6z M224,150.5
			c-0.8,0.9-1.4-0.3-2-0.7c-5.6-3.9-14-3.9-19.8,0c-0.6,0.4-1.1,1.3-1.9,0.7c-0.8-0.6-0.3-1.5,0.1-2.2c2.6-4.6,6.8-6.1,11.8-6.5
			c4.7,0.3,8.7,2.1,11.4,6.2C224.2,148.8,224.7,149.7,224,150.5z M230.3,133.1c-0.7,0.8-1.7-0.5-2.5-0.8c-6.3-2.3-12.9-3.3-19.5-3.7
			c-3-0.2-5.9,0-8.9-0.1c-0.9,0-2.3,0.7-2.6-0.5c-0.2-0.9,1-1.6,1.8-2.1c4.1-2.9,8.8-4,12.8-3.9c7.2-0.1,12.6,2,17,6.4
			c0.5,0.5,0.9,1,1.2,1.5C230.1,130.9,231,132.2,230.3,133.1z"/>
		<path class="st60" d="M148.9,121.9c3.9,0.2,7.6,1,11.1,2.8c0.4,0.2,0.9,0.4,1.3,0.7c0.9,0.8,2.6,1.4,2.3,2.6
			c-0.4,1.2-2,0.5-3.1,0.4c-8.6-0.3-17,0.6-25.3,3c-1.6,0.5-3.2,1.2-4.8,1.9c-0.6-1-0.1-2,0.1-2.9
			C136.6,127.6,142.7,124.7,148.9,121.9z"/>
		<path class="st61" d="M117.2,306.4c0-3,2.3-5.4,5.2-5.4c3.2,0,5.8,2.6,5.8,5.8c-0.1,3-2.5,5.2-5.8,5.1
			C119.1,311.9,117.1,309.7,117.2,306.4z"/>
		<path class="st61" d="M242.1,306.5c0,3.3-2.1,5.4-5.3,5.4c-3.2,0-5.7-2.4-5.6-5.6c0.1-2.9,2.7-5.4,5.7-5.4
			C239.8,301,242.1,303.4,242.1,306.5z"/>
		<path class="st62" d="M153.3,226.1c4.2,1,8.2,2.9,12.5,3.8c12.4,2.7,24.6,1.9,36.5-2.7c1.4-0.5,2.8-1,4.1-1.6c0,3.1,0,6.3,0,9.4
			c-1.5-0.3-2.7,0.6-4,1.1c-8.4,3.4-17.1,4.8-26,4.3c-7.6-0.4-15.1-2-22.1-5.4c-0.4-0.2-0.9-0.3-1.4-0.5
			C152.5,231.7,153.5,228.9,153.3,226.1z"/>
		<path class="st63" d="M179.7,190c4.4,0,8.9,0.1,13.3,0c2,0,2.5,0.5,2.1,2.6c-1.4,7.1-7.3,12.6-14.4,13.2c-7,0.5-13.9-4.2-16.1-11
			c0-0.1-0.1-0.2-0.1-0.2c-1.4-4.5-1.3-4.5,3.2-4.5C171.8,190,175.7,190,179.7,190z"/>
		<path class="st64" d="M179.7,168.7c3.8,0,7.6,0,11.4,0c1.8,0,2.2,0.6,1.6,2.2c-1.1,3-3.6,4.3-6.3,5.5c-5.6,2.6-14.2,1.2-18.2-3.1
			c-0.4-0.4-0.8-0.9-1-1.4c-1.6-2.7-1.2-3.3,1.9-3.3C172.6,168.7,176.2,168.7,179.7,168.7z"/>
		<path class="st65" d="M211.3,122c7.2-0.1,12.6,2,17,6.4c0.5,0.5,0.9,1,1.2,1.5c0.5,1,1.5,2.3,0.7,3.2c-0.7,0.8-1.7-0.5-2.5-0.8
			c-6.3-2.3-12.9-3.3-19.5-3.7c-3-0.2-5.9,0-8.9-0.1c-0.9,0-2.3,0.7-2.6-0.5c-0.2-0.9,1-1.6,1.8-2.1
			C202.7,123,207.3,121.9,211.3,122z"/>
		<path class="st66" d="M148.6,141.9c3.4,0.2,7.5,1.9,10.1,6.3c0.5,0.8,1.1,1.7,0.2,2.4c-0.7,0.6-1.3-0.4-1.9-0.8
			c-5.6-3.9-13.6-4-19.6-0.2c-0.7,0.4-1.4,1.4-2.1,0.8c-0.9-0.8-0.1-1.8,0.4-2.6C138.1,144.1,142.3,141.9,148.6,141.9z"/>
		<path class="st66" d="M212.2,141.8c4.7,0.3,8.7,2.1,11.4,6.2c0.5,0.8,1,1.7,0.3,2.5c-0.8,0.9-1.4-0.3-2-0.7
			c-5.6-3.9-14-3.9-19.8,0c-0.6,0.4-1.1,1.3-1.9,0.7c-0.8-0.6-0.3-1.5,0.1-2.2C203,143.7,207.3,142.2,212.2,141.8z"/>
		<path class="st55" d="M172.7,115.7c-0.1,0.1-0.1,0.1-0.2,0.2C172.5,115.8,172.6,115.7,172.7,115.7
			C172.7,115.6,172.7,115.7,172.7,115.7z"/>
	</g>
</g>
</svg>
