<?xml version="1.0" encoding="utf-8"?>
<!-- Generator: Adobe Illustrator 22.1.0, SVG Export Plug-In . SVG Version: 6.00 Build 0)  -->
<svg version="1.1" id="Ebene_1" xmlns="http://www.w3.org/2000/svg" xmlns:xlink="http://www.w3.org/1999/xlink" x="0px" y="0px"
	 viewBox="0 0 362 362" style="enable-background:new 0 0 362 362;" xml:space="preserve">
<style type="text/css">
	.st0{opacity:0.5;fill:#3366CC;}
	.st1{fill:#4B322D;}
	.st2{fill:#262E33;}
	.st3{fill:#3B4C5A;}
	.st4{fill:#3A2621;}
	.st5{fill:#3C4D5A;}
	.st6{fill:#2F4351;}
	.st7{fill:#EBB789;}
	.st8{fill:#262E32;}
	.st9{fill:#DADBDC;}
	.st10{fill:#E9B789;}
	.st11{fill:#D2A47A;}
	.st12{fill:#4D3C2C;}
	.st13{fill:#C79B74;}
	.st14{fill:#69523D;}
	.st15{fill:#67503B;}
	.st16{fill:#EBDBBE;}
	.st17{fill:#FE5C5C;}
	.st18{fill:#CD895A;}
	.st19{fill:#CEC3AE;}
	.st20{fill:#CF8A5B;}
	.st21{fill:#AE774F;}
	.st22{fill:#8D8981;}
	.st23{fill:#938170;}
	.st24{fill:#C3B6A0;}
	.st25{fill:#553925;}
	.st26{fill:#553A25;}
	.st27{fill:#AF754C;}
	.st28{fill:#563A25;}
	.st29{fill:#1F333C;}
	.st30{fill:#FEDDB4;}
	.st31{fill:#724133;}
	.st32{fill:#CF8B5B;}
	.st33{fill:#E5C7A4;}
	.st34{fill:#BB7C52;}
	.st35{fill:#D5E7EE;}
	.st36{fill:#CE8A5A;}
	.st37{fill:#17242B;}
	.st38{fill:#CF8A5A;}
	.st39{fill:#AE754C;}
	.st40{fill:#A9734E;}
	.st41{fill:#CA8759;}
	.st42{fill:#E5E5E5;}
	.st43{fill:#4A322D;}
	.st44{fill:#2A2F31;}
	.st45{fill:#EAB789;}
	.st46{fill:#EBB88A;}
	.st47{fill:#E9B688;}
	.st48{fill:#C69B75;}
	.st49{fill:#CEA279;}
	.st50{fill:#D0A37A;}
	.st51{fill:#EBB889;}
	.st52{fill:#EAB788;}
	.st53{fill:#614C38;}
	.st54{fill:#48392A;}
	.st55{fill:#B98A50;}
	.st56{fill:#B0E1FE;}
	.st57{fill:#AD5D29;}
	.st58{fill:#B48043;}
	.st59{fill:#AE5D29;}
	.st60{fill:#4A2811;}
	.st61{fill:#F2F3F3;}
	.st62{fill:#9D5425;}
	.st63{fill:#361D0C;}
	.st64{fill:#924E22;}
	.st65{fill:#482611;}
	.st66{fill:#492711;}
	.st67{fill:#D9BA7E;}
	.st68{fill:#929497;}
	.st69{fill:#D5B270;}
	.st70{fill:#B1955F;}
	.st71{fill:#272D2F;}
	.st72{fill:#533B2E;}
	.st73{fill:#51382D;}
	.st74{fill:#221814;}
	.st75{fill:#614335;}
	.st76{fill:#F0F0F0;}
	.st77{fill:#604235;}
	.st78{fill:#573C30;}
	.st79{fill:#281C16;}
	.st80{fill:#FA4E6B;}
	.st81{fill:#FEFEFE;}
	.st82{fill:#2C1B19;}
	.st83{fill:#3A4C5A;}
	.st84{fill:#4A312C;}
	.st85{fill:#614436;}
	.st86{fill:#EFEFEF;}
	.st87{fill:#624436;}
	.st88{fill:#E0E0E1;}
	.st89{fill:#1D1410;}
	.st90{fill:#EEEEEE;}
	.st91{fill:#D4B270;}
	.st92{fill:#FEDAB3;}
	.st93{fill:#FDDAB3;}
	.st94{fill:#E5C6A2;}
	.st95{fill:#B8A07B;}
	.st96{fill:#FDFDFC;}
	.st97{fill:#4F4337;}
	.st98{fill:#695A4A;}
	.st99{fill:#6A5B4B;}
	.st100{fill:#FC506D;}
	.st101{fill:#D6B897;}
	.st102{fill:#505050;}
	.st103{fill:#AD5D2A;}
	.st104{fill:#5199E3;}
	.st105{fill:#E6DFE0;}
	.st106{fill:#F1F2F3;}
	.st107{fill:#4580BF;}
	.st108{fill:#C9CBCD;}
	.st109{fill:#E8D8BB;}
	.st110{fill:#371E0E;}
	.st111{fill:#FBFBFB;}
	.st112{opacity:0.2;fill:#3366CC;}
	.st113{fill:#84A3E0;}
	.st114{fill:#C83306;}
	.st115{fill:#C73306;}
	.st116{fill:#272F33;}
	.st117{fill:#EDECEC;}
	.st118{fill:#FDD9B3;}
	.st119{fill:#D4B695;}
	.st120{fill:#E5C5A1;}
	.st121{fill:#21272B;}
	.st122{fill:#C9C9C9;}
	.st123{fill:#D6D6D6;}
	.st124{opacity:0.5;}
	.st125{fill:#3366CC;}
	.st126{fill-opacity:0.1;}
	.st127{fill:#E6E6E6;}
	.st128{fill:#F2F2F2;}
	.st129{fill-opacity:0.16;}
	.st130{fill:#FFFFFF;}
	.st131{fill-opacity:0.7;}
	.st132{fill-opacity:0.6;}
</style>
<g>
	<path class="st0" d="M362,181c0,58.2-27.5,110-70.1,143.1c-18.1,14.1-39,24.8-61.7,31.2c-0.1,0-0.2,0.1-0.3,0.1
		c-6.3,1.8-12.6,3.2-19.1,4.3c-9.7,1.6-19.6,2.4-29.7,2.4c-10.2,0-20.2-0.9-30-2.5c0,0,0,0,0,0c-5.4-0.9-10.8-2-16-3.4
		c-1-0.3-2.1-0.5-3.1-0.8c-23.2-6.5-44.6-17.6-63-32.2C26.9,289.9,0,238.6,0,181C0,81,81,0,181,0S362,81,362,181z"/>
	<g>
		<path class="st1" d="M98.2,264c0-47.6-0.5-95.1,0.3-142.7c0.6-40.8,37.4-75.4,78.3-77c41.4-1.5,74.7,26.1,84.1,60.5
			c2.9,10.8,2.1,21.8,1.8,32.8c-4.1,0.8-8.1-1.5-12.2-0.2c-1.4-0.8-2.7-1.8-4.2-2.4c-21.2-8.9-35.3-24.9-45.1-45.2
			c-1.3-2.6-1.7-5.7-4-7.9c-20.2,21.4-40.3,34.9-67.2,44.8c-3.6,1.3-4.9,3.1-4.8,7c0.2,20,0.2,40,0.1,59.9c0,2.7,0.6,5.2,1.7,7.6
			c-2,0.2-2.7,1.4-2.7,3.4c0,13.7,0,27.3,0,41c0,2.7,1.2,3.7,3.7,3.6c-1.8,1.5-2.7,3.2-2.5,5.7c0.2,3.8,0.1,7.6,0.1,11.4
			c0,3,0.1,6.1-0.1,9.1c-0.6,12.9,1.8,26-2.4,38.6c-4.3,6.7-9.3,12.8-17,16c-6.1,2.6-7.5,1.7-7.5-5C98.2,304.7,98.2,284.4,98.2,264z
			"/>
		<path class="st2" d="M210.7,359.6c-9.7,1.6-19.6,2.4-29.7,2.4c-10.2,0-20.2-0.9-30-2.5c0,0,0,0,0,0c0-4.7-0.1-11.6-0.1-17.3
			c0-1,0-1.9,0-2.8c0-0.5,0-1,0-1.5c0-0.7,0-1.4,0-2.1c0-0.2,0-0.4,0-0.6c0-0.2,0-0.5,0-0.7c0-0.3,0-0.6,0-0.9c0-0.1,0-0.2,0-0.3
			c0-0.4,0-0.7,0-0.9c0-0.1,0-0.2,0-0.3c0-0.1,0-0.1,0-0.2c-4.3-20.4-7.3-40.9-6.9-61.8c3.8-0.7,5.6,2.9,8.4,4.3
			c20,9.7,39.9,9.5,59.5-1c1.8-1,3.3-2.4,5.5-2.1C217.9,291.5,214.2,336,210.7,359.6z"/>
		<path class="st3" d="M291.9,324.1c-18.1,14.1-39,24.8-61.7,31.2c-0.1,0-0.2,0.1-0.3,0.1c2.2-13,4.7-35.2,7.6-44.1
			c0.2-0.8,0.5-1.4,0.7-2c6.4,0.3,12.7-1,19.4-1.7c-7.9-8.1-7.9-8.1-17.1-2.2c2-6,2.6-11.6-2.5-16.6c-2.2-2.1-0.6-4.2,1.2-5.7
			c3.1-2.4,2.8-5,0.9-8c-1.4-2.2-3-4.3-4.1-6.7c-3.3-7.1-10.1-12.3-11.3-20.5c1.6,0.2,3.2,0.2,4.8,0.5c12.3,2.5,23,8.7,33.4,15.4
			c15.2,13.5,25.3,30,28.6,50.3C291.8,317.5,291.9,320.8,291.9,324.1z"/>
		<path class="st4" d="M262.7,263.9c-10.4-6.7-21.1-12.9-33.4-15.4c-1.6-0.3-3.2-0.4-4.8-0.5c-3-0.8-5.9-1.7-9-0.9
			c-7.1,1.1-9.3-2.3-8.2-8.9c0.1-0.8-0.1-1.6-0.2-2.4c0-3.3,0.1-6.6,0.1-9.9c18.1-9.5,30.1-23.8,34.3-44.1c0.9-4.1,1.3-7.7,6.2-9.2
			c2.4-0.7,4.6-3.2,5-5.8c1.4-9.9,3.8-20-2.5-29.3c4.1-1.3,8.1,1,12.2,0.2c0.1,5.7,0.4,11.4,0.4,17
			C262.9,191.1,262.8,227.5,262.7,263.9z"/>
		<path class="st5" d="M135,356.1c-1-0.3-2.1-0.5-3.1-0.8c-23.2-6.5-44.6-17.6-63-32.2c1-23.5,11.1-43,29.3-59.1
			c0.1,20.4,0.1,40.7,0.2,61.1c0,6.8,1.4,7.6,7.5,5c7.7-3.2,12.7-9.2,17-16c1,0.1,2.1,0.4,2.5,1.5c0,0.1,0.1,0.2,0.1,0.3
			C127.8,322.3,134.4,328.8,135,356.1z"/>
		<path class="st6" d="M240.5,305.3c-0.8,1.3-1.6,2.6-2.4,3.9c-0.2,0.5-0.5,1.2-0.7,2c-2.7,8.7-5.1,30.4-7.3,44.1
			c-0.1,0-0.2,0.1-0.3,0.1c-6.3,1.8-12.6,3.2-19.1,4.3c3.5-23.6,7.2-68.1,6.5-88.3c-0.5-4.9,1.3-9.9-1.1-14.7
			c-0.2-3.2-0.4-6.4-0.5-9.5c3.1-0.8,6.1,0.1,9,0.9c1.3,8.2,8,13.4,11.3,20.5c1.1,2.4,2.7,4.5,4.1,6.7c1.9,2.9,2.2,5.5-0.9,8
			c-1.8,1.5-3.4,3.5-1.2,5.7C243.1,293.7,242.4,299.4,240.5,305.3z"/>
		<path class="st6" d="M151,359.5C151,359.5,151,359.5,151,359.5c-5.5-0.9-10.8-2.1-16-3.4c-1-0.3-2.1-0.5-3.1-0.8
			c-1.5-11.5-4.4-33.4-6.5-39.4c0-0.1-0.1-0.2-0.1-0.3c-0.4-1.1-1.4-1.3-2.5-1.5c4.3-12.7,1.9-25.7,2.5-38.6c0.1-3,0-6.1,0.1-9.1
			c5-5.3,9.3-11.1,11-18.4c3.1-0.9,6.1-1.8,9.3-0.8c-0.3,2.3-0.6,4.6-1,7c-2.3,5.2-0.5,10.6-1,15.9c-0.5,20.9,2.6,41.4,6.9,61.8
			c0,0,0,0.1,0,0.2c0,0.1,0,0.2,0,0.3c0,0.2,0,0.6,0,0.9c0,0.1,0,0.2,0,0.3c0,0.3,0,0.6,0,0.9c0,0.2,0,0.4,0,0.7c0,0.2,0,0.4,0,0.6
			c0,0.6,0,1.3,0,2.1c0,0.5,0,1,0,1.5c0,0.9,0,1.8,0,2.8C150.9,348.6,151,356.3,151,359.5z"/>
		<path class="st7" d="M250.3,137.5c-1.4-0.8-2.7-1.8-4.2-2.4c-21.2-8.9-35.3-24.9-45.1-45.2c-1.3-2.6-1.7-5.7-4-7.9
			c-20.2,21.4-40.3,34.9-67.2,44.8c-3.6,1.3-4.9,3-4.8,7c0.2,20,0.2,40,0,59.9c0,2.8,0.6,5.2,1.7,7.6c6.8,10.6,15.8,18.8,27,24.6
			c17.8,7.9,35.7,8,53.5,0c18.1-9.5,30.1-23.8,34.3-44.1c0.9-4.1,1.3-7.7,6.2-9.2c2.4-0.8,4.6-3.2,5-5.8
			C254.3,156.9,256.7,146.8,250.3,137.5z M167.6,170.7c0.5-1.8,2.4-1.1,3.7-1.1c3-0.1,6.1,0,9.1,0c3,0,6.1-0.1,9.1,0
			c1.3,0,3.2-0.6,3.7,1.2c0.4,1.5-1.2,2.4-2.1,3.4c-5.3,5.5-16.2,5.4-21.5,0C168.8,173.1,167.2,172.3,167.6,170.7z M151.8,155.8
			c-4,0.1-6.6-2.2-6.8-6.3c-0.2-4.1,2.1-6.6,6.2-6.9c4.2-0.2,6.2,2.4,7.1,6.2C157.7,152.7,155.9,155.7,151.8,155.8z M161.4,127.8
			c-3.4-0.2-6.7-0.9-10.3-0.4c-5.3,0.8-10.3,2.2-14.2,6.1c-1.3,1.3-3,2.9-4.6,1.2c-2-2.1,0.4-3.7,1.8-4.9c5.8-4.9,12.6-7.2,20.2-7.2
			c2.6,0.2,5.3,0.3,7.9,0.7c1.2,0.2,2.4,0.9,2.3,2.4C164.3,127.6,162.9,127.9,161.4,127.8z M195.3,195.5
			c-2.4,6.4-8.7,10.9-15.4,10.6c-6.8-0.3-12.9-5.4-14.5-11.8c-0.8-2.9-0.2-4.1,3-4c4,0.2,8.1,0,12.2,0c3.7,0,7.3,0.2,10.9-0.1
			C195.8,190,196.7,191.5,195.3,195.5z M209.5,155.8c-4.3,0.1-6.8-2.9-6.6-7c0.1-3.8,2.8-6.3,6.8-6.2c4.1,0.1,6.1,2.7,6.4,6.7
			C215.6,153.3,213.3,155.8,209.5,155.8z M228.5,134.8c-1.5,1.4-2.9,0-4.2-1.1c-6-5.4-13.2-6.9-21-6.3c-2.3,0.2-6.2,2.3-6.6-1.6
			c-0.3-3.6,3.8-2.5,6.3-2.9c1.2-0.2,2.4,0,3.7,0c7.8-0.1,14.9,2,20.7,7.5C228.6,131.5,230.5,133,228.5,134.8z"/>
		<path class="st4" d="M126.8,201.3c6.8,10.6,15.8,18.8,27,24.6c0.5,3.3-0.5,6.7,0.7,9.9c-0.7,10.5-0.7,10.5-8.8,11.4
			c-3.2-1-6.3-0.1-9.3,0.8c-2.9,0.4-5.7,0.8-8.6,1.2c-2.5,0.1-3.7-0.9-3.7-3.6c0.1-13.7,0.1-27.3,0-41
			C124.1,202.7,124.8,201.5,126.8,201.3z"/>
		<path class="st3" d="M127.8,249.2c2.9-0.4,5.7-0.8,8.6-1.2c-1.7,7.3-6,13-11,18.4c0-3.8,0.1-7.6-0.1-11.4
			C125.1,252.4,126,250.7,127.8,249.2z"/>
		<path class="st8" d="M143.7,270c0.5-5.3-1.2-10.7,1-15.9c10.8,22.3,56.8,24,71.3,2.4c2.4,4.7,0.6,9.8,1.1,14.7
			c-2.2-0.3-3.7,1.1-5.5,2.1c-19.6,10.5-39.5,10.7-59.5,1C149.3,272.9,147.6,269.4,143.7,270z"/>
		<path class="st9" d="M238.1,309.2c0.8-1.3,1.6-2.6,2.4-3.9c9.2-5.9,9.2-5.9,17.1,2.2C250.8,308.2,244.5,309.5,238.1,309.2z"/>
		<path class="st10" d="M216,256.6c-14.5,21.6-60.5,19.9-71.3-2.4c0.3-2.3,0.6-4.6,1-7c8.1-1,8.1-1,8.8-11.4
			c1.2,0.2,2.5,0.1,3.6,0.5c13.1,5.2,26.3,5.9,39.9,1.9c3.1-0.9,5.8-3.2,9.3-2.4c0.1,0.8,0.3,1.6,0.2,2.4c-1.1,6.5,1.1,9.9,8.2,8.9
			C215.7,250.2,215.9,253.4,216,256.6z"/>
		<path class="st11" d="M207.2,235.8c-3.5-0.7-6.2,1.5-9.3,2.4c-13.5,4-26.8,3.3-39.9-1.9c-1.1-0.4-2.4-0.3-3.6-0.5
			c-1.2-3.2-0.2-6.6-0.7-9.9c17.8,7.9,35.7,8,53.5,0C207.3,229.2,207.2,232.5,207.2,235.8z"/>
		<path class="st12" d="M180.5,190.4c3.6,0,7.3,0.2,10.9-0.1c4.4-0.3,5.3,1.2,3.9,5.2c-2.3,6.4-8.7,10.9-15.4,10.6
			c-6.8-0.3-12.9-5.4-14.5-11.8c-0.8-2.9-0.2-4.1,3-4C172.4,190.5,176.4,190.4,180.5,190.4z"/>
		<path class="st13" d="M180.5,169.5c3,0,6.1-0.1,9.1,0c1.3,0,3.2-0.6,3.7,1.2c0.4,1.5-1.2,2.4-2.1,3.4c-5.3,5.5-16.2,5.4-21.5,0
			c-0.9-1-2.5-1.9-2.1-3.4c0.5-1.8,2.4-1.1,3.7-1.1C174.4,169.5,177.4,169.5,180.5,169.5z"/>
		<path class="st14" d="M206.7,122.8c7.8-0.1,14.9,2,20.7,7.5c1.3,1.2,3.2,2.7,1.1,4.6c-1.6,1.4-2.9,0-4.2-1.1
			c-6-5.4-13.2-6.9-21-6.3c-2.3,0.2-6.2,2.2-6.6-1.6c-0.3-3.6,3.8-2.5,6.3-2.9C204.2,122.7,205.5,122.8,206.7,122.8z"/>
		<path class="st14" d="M154.2,122.6c2.6,0.2,5.2,0.3,7.8,0.7c1.2,0.2,2.4,0.9,2.3,2.4c-0.1,1.9-1.5,2.2-3,2.1
			c-3.4-0.2-6.7-0.9-10.3-0.4c-5.3,0.8-10.3,2.2-14.2,6.1c-1.3,1.3-3,2.9-4.6,1.2c-2-2.2,0.4-3.7,1.8-4.9
			C139.9,124.9,146.6,122.6,154.2,122.6z"/>
		<path class="st15" d="M158.3,148.8c-0.6,3.8-2.3,6.9-6.4,7c-3.9,0.1-6.7-2.2-6.9-6.3c-0.2-4.1,2.1-6.6,6.2-6.9
			C155.3,142.4,157.3,145.1,158.3,148.8z"/>
		<path class="st15" d="M216.1,149.3c-0.4,3.9-2.7,6.4-6.6,6.5c-4.3,0.1-6.8-2.9-6.6-7c0.1-3.8,2.8-6.3,6.8-6.2
			C213.7,142.8,215.7,145.3,216.1,149.3z"/>
	</g>
</g>
<g>
	<g>
	</g>
</g>
</svg>
