<?xml version="1.0" encoding="utf-8"?>
<!-- Generator: Adobe Illustrator 22.1.0, SVG Export Plug-In . SVG Version: 6.00 Build 0)  -->
<svg version="1.1" id="Ebene_1" xmlns="http://www.w3.org/2000/svg" xmlns:xlink="http://www.w3.org/1999/xlink" x="0px" y="0px"
	 viewBox="0 0 362 362" style="enable-background:new 0 0 362 362;" xml:space="preserve">
<style type="text/css">
	.st0{opacity:0.5;fill:#3366CC;}
	.st1{fill:#4B322D;}
	.st2{fill:#262E33;}
	.st3{fill:#3B4C5A;}
	.st4{fill:#3A2621;}
	.st5{fill:#3C4D5A;}
	.st6{fill:#2F4351;}
	.st7{fill:#EBB789;}
	.st8{fill:#262E32;}
	.st9{fill:#DADBDC;}
	.st10{fill:#E9B789;}
	.st11{fill:#D2A47A;}
	.st12{fill:#4D3C2C;}
	.st13{fill:#C79B74;}
	.st14{fill:#69523D;}
	.st15{fill:#67503B;}
	.st16{fill:#EBDBBE;}
	.st17{fill:#FE5C5C;}
	.st18{fill:#CD895A;}
	.st19{fill:#CEC3AE;}
	.st20{fill:#CF8A5B;}
	.st21{fill:#AE774F;}
	.st22{fill:#8D8981;}
	.st23{fill:#938170;}
	.st24{fill:#C3B6A0;}
	.st25{fill:#553925;}
	.st26{fill:#553A25;}
	.st27{fill:#AF754C;}
	.st28{fill:#563A25;}
	.st29{fill:#1F333C;}
	.st30{fill:#FEDDB4;}
	.st31{fill:#724133;}
	.st32{fill:#CF8B5B;}
	.st33{fill:#E5C7A4;}
	.st34{fill:#BB7C52;}
	.st35{fill:#D5E7EE;}
	.st36{fill:#CE8A5A;}
	.st37{fill:#17242B;}
	.st38{fill:#CF8A5A;}
	.st39{fill:#AE754C;}
	.st40{fill:#A9734E;}
	.st41{fill:#CA8759;}
	.st42{fill:#E5E5E5;}
	.st43{fill:#4A322D;}
	.st44{fill:#2A2F31;}
	.st45{fill:#EAB789;}
	.st46{fill:#EBB88A;}
	.st47{fill:#E9B688;}
	.st48{fill:#C69B75;}
	.st49{fill:#CEA279;}
	.st50{fill:#D0A37A;}
	.st51{fill:#EBB889;}
	.st52{fill:#EAB788;}
	.st53{fill:#614C38;}
	.st54{fill:#48392A;}
	.st55{fill:#B98A50;}
	.st56{fill:#B0E1FE;}
	.st57{fill:#AD5D29;}
	.st58{fill:#B48043;}
	.st59{fill:#AE5D29;}
	.st60{fill:#4A2811;}
	.st61{fill:#F2F3F3;}
	.st62{fill:#9D5425;}
	.st63{fill:#361D0C;}
	.st64{fill:#924E22;}
	.st65{fill:#482611;}
	.st66{fill:#492711;}
	.st67{fill:#D9BA7E;}
	.st68{fill:#929497;}
	.st69{fill:#D5B270;}
	.st70{fill:#B1955F;}
	.st71{fill:#272D2F;}
	.st72{fill:#533B2E;}
	.st73{fill:#51382D;}
	.st74{fill:#221814;}
	.st75{fill:#614335;}
	.st76{fill:#F0F0F0;}
	.st77{fill:#604235;}
	.st78{fill:#573C30;}
	.st79{fill:#281C16;}
	.st80{fill:#FA4E6B;}
	.st81{fill:#FEFEFE;}
	.st82{fill:#2C1B19;}
	.st83{fill:#3A4C5A;}
	.st84{fill:#4A312C;}
	.st85{fill:#614436;}
	.st86{fill:#EFEFEF;}
	.st87{fill:#624436;}
	.st88{fill:#E0E0E1;}
	.st89{fill:#1D1410;}
	.st90{fill:#EEEEEE;}
	.st91{fill:#D4B270;}
	.st92{fill:#FEDAB3;}
	.st93{fill:#FDDAB3;}
	.st94{fill:#E5C6A2;}
	.st95{fill:#B8A07B;}
	.st96{fill:#FDFDFC;}
	.st97{fill:#4F4337;}
	.st98{fill:#695A4A;}
	.st99{fill:#6A5B4B;}
	.st100{fill:#FC506D;}
	.st101{fill:#D6B897;}
	.st102{fill:#505050;}
	.st103{fill:#AD5D2A;}
	.st104{fill:#5199E3;}
	.st105{fill:#E6DFE0;}
	.st106{fill:#F1F2F3;}
	.st107{fill:#4580BF;}
	.st108{fill:#C9CBCD;}
	.st109{fill:#E8D8BB;}
	.st110{fill:#371E0E;}
	.st111{fill:#FBFBFB;}
	.st112{opacity:0.2;fill:#3366CC;}
	.st113{fill:#84A3E0;}
	.st114{fill:#C83306;}
	.st115{fill:#C73306;}
	.st116{fill:#272F33;}
	.st117{fill:#EDECEC;}
	.st118{fill:#FDD9B3;}
	.st119{fill:#D4B695;}
	.st120{fill:#E5C5A1;}
	.st121{fill:#21272B;}
	.st122{fill:#C9C9C9;}
	.st123{fill:#D6D6D6;}
	.st124{opacity:0.5;}
	.st125{fill:#3366CC;}
	.st126{fill-opacity:0.1;}
	.st127{fill:#E6E6E6;}
	.st128{fill:#F2F2F2;}
	.st129{fill-opacity:0.16;}
	.st130{fill:#FFFFFF;}
	.st131{fill-opacity:0.7;}
	.st132{fill-opacity:0.6;}
</style>
<g>
	<path class="st0" d="M362,181c0,58-27.2,109.5-69.6,142.7c-0.2,0.1-0.3,0.3-0.5,0.4c-18.1,14.1-39,24.8-61.7,31.2
		c-0.1,0-0.2,0.1-0.3,0.1c-6.3,1.8-12.6,3.2-19.1,4.3c-9.7,1.6-19.6,2.4-29.7,2.4c-10.2,0-20.2-0.9-30-2.5c0,0,0,0,0,0
		c-5.4-0.9-10.8-2-16-3.4c-1-0.3-2.1-0.5-3.1-0.8c-23.1-6.5-44.3-17.4-62.6-31.9c-0.2-0.1-0.3-0.2-0.4-0.3C26.9,289.9,0,238.6,0,181
		C0,81,81,0,181,0S362,81,362,181z"/>
	<g>
		<path class="st16" d="M153.1,237.3c-12.7,5.6-24.3,3.8-35-4.9c-1.1-0.9-2-1.3-3.3-1.2c-7.9,0.6-15.4-0.8-22.6-4.2
			c-6.8-3.2-12.5-7.8-17.5-13.4c-3.4-3.9-6.2-8.2-8.3-12.9c-1-2.3-2.5-4.1-4.2-5.9c-3.2-3.4-5.7-7.2-6.9-11.8
			c-0.7-2.8-1.1-5.7-1.6-8.5c-0.5-2.5,0-4.8,0-7.2c0-3.5-1.7-6.4-2.3-9.7c-1-5.8-2.1-11.5-1.7-17.4c0.3-4.4,1-8.7,1.9-13.1
			c0.8-4.1,2.1-8,3.4-12c0.9-2.6,2.5-5,3.8-7.5c1.1-2,1.8-3.9,2.1-6.2c0.6-5,1-10.1,3.7-14.7c1.1-1.9,1.6-4.1,3.4-5.6
			c0.6,0,0.8-0.4,0.9-0.9c0,0,0,0,0,0c0.2-0.2,0.3-0.3,0.5-0.5c0,0,0,0,0,0c0.2-0.2,0.3-0.3,0.5-0.5c0,0,0,0,0,0
			c0.4-0.2,0.5-0.5,0.5-0.9c0,0,0,0,0,0c0.2-0.2,0.3-0.3,0.5-0.5c0.1-0.1,0.3-0.3,0.4-0.4c0.4,0,0.8-0.1,1-0.5c0,0,0,0,0,0
			c0.2-0.2,0.3-0.4,0.5-0.5c4.2-2.5,5.4-7.1,7.9-10.9c3.1-4.9,6.4-9.8,10.9-13.6c5.5-4.6,11.4-8.3,18.2-10.6c3.4-1.1,7-2.1,10.7-2.2
			c1.9-0.1,3.3-1.2,4.6-2.5c4.9-4.7,10.9-7,17.5-6.8c3.6,0.1,6.5-1.4,9.6-2.4c5.2-1.7,10.5-2.9,15.8-3.6c15.1-1.9,30-0.8,44.4,4.7
			c2.8,1.1,5.5,1.2,8.5,1.3c5.3,0.2,10.3,2,14.2,5.7c2.6,2.5,5.5,3.5,9,4c12.8,2,22.9,8.6,31.1,18.4c3.7,4.5,6.7,9.4,9.1,14.6
			c0.4,0.8,0.9,1.3,1.5,1.7c7.9,5.4,12.3,12.9,13.7,22.4c0.1,0.5,0.4,1.1,0.3,1.6c-0.7,4.5,1.7,8,3.6,11.7
			c4.3,8.3,6.6,17.1,7.3,26.5c0.6,8.5-0.1,16.7-2.1,24.9c-0.7,2.8-1,5.5-0.9,8.4c0.4,10.4-2.9,19.4-10.6,26.6
			c-2.3,2.2-2.9,5.3-4.5,7.9c-7.5,12.6-17.8,21.7-32.3,25.5c-4.3,1.1-8.7,1.6-13.1,1.2c-2-0.2-3.5,0.4-5.1,1.7
			c-5.1,4.2-10.9,6.5-17.6,7.3c-6,0.7-11.5-0.7-16.9-2.9c0-0.2-0.1-0.3-0.1-0.5c0-3.4,0.1-6.9,0.1-10.3l0,0c0.2-0.2,0.3-0.3,0.5-0.5
			c0.4-0.1,0.8-0.2,1.1-0.3c9.4-4.7,16.9-11.6,23-20.1c6.2-8.7,9.8-18.4,11-28.9c0.1-1.3,0.9-1.8,1.9-2c4.6-1.1,7.3-4.1,8.9-8.3
			c0.7-1.1,1-2.4,1-3.7c0-5.4,0-10.8,0-16.3c0-0.7,0.2-1.6-0.5-2.2c-0.4-1.3-0.4-3-1.8-3.6c-5.7-2.5-9.4-7-12.9-11.7
			c-7-9.4-11.6-20-15.1-31.2c-0.5-1.5-1-1.8-2.4-1.6c-8.3,1.2-16.6,2.1-24.9,2.3c-2.8,0.1-5.7-0.4-8.5,0.4c-0.3,0-0.6,0-0.9,0
			c-0.2-0.2-0.3-0.2-0.5,0c-4.4,0-8.7,0-13.1,0c-0.2-0.2-0.3-0.2-0.5,0c-0.3,0-0.6,0-0.9,0c-2.6-0.9-5.3-0.3-8-0.4
			c-4.4,0.1-8.7-0.4-13-0.8c-4.4-0.4-8.8-0.9-13.1-1.5c-1.1-0.1-2-0.1-2.4,1.4c-3.5,11.5-8.4,22.3-15.5,32
			c-3.1,4.2-6.6,8.1-11.3,10.5c-2.1,1.1-3,2.4-3.1,4.7c-0.8,6.7-0.8,13.4,0,20.1c1.2,5.3,4.6,8.5,9.6,10.2c0.9,0.3,1.6,0.4,1.7,1.5
			c0.1,1.2,0.3,2.3,0.5,3.4c1.9,12,7,22.4,15,31.4c5.8,6.4,12.6,11.5,20.4,15.3c0,1,0.1,2,0,3C153.3,232.2,154,234.8,153.1,237.3z"
			/>
		<path class="st17" d="M292.4,323.7c-0.2,0.1-0.3,0.3-0.5,0.4c-18.1,14.1-39,24.8-61.7,31.2c-0.1,0-0.2,0.1-0.3,0.1
			c-6.3,1.8-12.6,3.2-19.1,4.3c-9.7,1.6-19.6,2.4-29.7,2.4c-10.2,0-20.2-0.9-30-2.5c0,0,0,0,0,0c-5.4-0.9-10.8-2-16-3.4
			c-1-0.3-2.1-0.5-3.1-0.8c-23.1-6.5-44.3-17.4-62.6-31.9c0.5-6.6,1.2-12.8,2.1-17.6c0,0,0,0,0-0.1c0.5-2.6,1.1-4.8,1.7-6.5
			c1.7-4.3,3.7-8.4,5.9-12.2c0.1-0.1,0.2-0.3,0.3-0.4c0.3-0.5,0.6-1,0.9-1.6c4.9-7.9,10.9-14.7,17.9-20.3
			c6.9-5.5,14.9-9.9,23.9-13.3c0.8-0.3,1.6-0.5,2.5-0.7c0.8,0.1,0.9,0.5,0.8,1.3c-0.4,2.4-0.4,4.6,0,6.7c0.3,1.9,0.9,3.7,1.8,5.5
			c1.1,2.2,2.5,4.2,4.2,6.1c3.5,4,7.8,7.1,12.4,9.6c1.7,0.9,3.4,1.7,5.2,2.4c8.4,3.4,17.1,5.5,26.2,5.8c8,0.2,15.9,0,23.8-1.7
			c6.5-1.4,12.7-3.3,18.3-6.2c5-2.6,9.6-6,13.6-10.6c1.3-1.5,2.3-3,3.2-4.6c2.3-4.3,3-9,2-14.2c6,1.5,11.6,4.1,16.8,7.3
			c19.2,11.7,31.5,28.1,37.1,49c0.8,3.2,1.5,6.5,2.1,9.9C292.1,318.3,292.3,320.7,292.4,323.7z"/>
		<path class="st18" d="M236,250.9c1.4,7.1-0.5,13.4-5.1,18.9c-8.4,9.8-19.6,14.2-31.9,16.8c-7.9,1.7-15.9,1.9-23.8,1.7
			c-9.1-0.2-17.8-2.3-26.2-5.8c-6.7-2.8-12.7-6.6-17.6-12c-4.6-5.2-7.2-11.2-6-18.3c0.1-0.8,0-1.2-0.8-1.3c8.5-2.8,17.2-4,26.1-3.7
			c2.1,0.1,2.7-0.6,2.5-2.6c-0.2-2.4-0.1-4.8-0.1-7.2c0.9-2.5,0.2-5.2,0.4-7.7c0.1-1,0-2,0-3c6.5,2.3,12.9,4.7,19.9,5.3
			c5.8,0.5,11.4,0.4,17.1-0.4c5.7-0.8,11.1-2.7,16.4-4.9c0.3,3.4-0.5,6.9,0.4,10.3c0,0.2,0.1,0.3,0.1,0.5c0,2.5,0,5-0.1,7.5
			c-0.1,1.8,0.4,2.4,2.3,2.4c8.1-0.3,16,0.7,23.7,2.9C234.2,250.3,235.1,250.6,236,250.9z"/>
		<path class="st19" d="M68.9,80.5c0,0.5-0.2,0.9-0.9,0.9C68,80.8,68.4,80.7,68.9,80.5z"/>
		<path class="st19" d="M72.1,77.3c-0.2,0.4-0.6,0.5-1,0.5C71.4,77.4,71.7,77.2,72.1,77.3z"/>
		<path class="st19" d="M70.3,78.7c0,0.4-0.1,0.8-0.5,0.9C69.7,79.2,69.9,78.9,70.3,78.7z"/>
		<path class="st19" d="M72.6,76.7c-0.2,0.2-0.3,0.4-0.5,0.5C72.3,77.1,72.4,76.9,72.6,76.7z"/>
		<path class="st19" d="M70.7,78.2c-0.2,0.2-0.3,0.3-0.5,0.5C70.4,78.5,70.6,78.3,70.7,78.2z"/>
		<path class="st19" d="M69.8,79.6c-0.2,0.2-0.3,0.3-0.5,0.5C69.5,79.9,69.6,79.8,69.8,79.6z"/>
		<path class="st19" d="M69.3,80.1c-0.2,0.2-0.3,0.3-0.5,0.5C69,80.4,69.2,80.2,69.3,80.1z"/>
		<path class="st20" d="M254.2,147.2c0-0.2,0-0.5,0-0.7c0,0-0.1,0-0.1,0c-3.4-0.1-5.9-2.2-8.1-4.4c-3.8-3.7-7-7.8-9.8-12.2
			c-2.6-4-4.8-8.3-6.7-12.8c-2.1-4.7-4-9.4-5.3-14.4c-0.2-0.8-0.7-1.3-1.7-1.2c-4.6,0.7-9.2,1.2-13.8,1.6c-4,0.3-8.1,0.6-12.1,0.8
			c-8.2,0.5-16.3,0.5-24.5,0.3c-1.4,0-2.8-0.1-4.2-0.1c-9.3-0.3-18.7-0.8-28-2.6c-1.9-0.4-3,0.1-3.7,2.3
			c-2.7,9.5-6.8,18.4-12.1,26.7c-3.6,5.7-7.7,10.9-13.5,14.6c-1.3,0.8-2.6,1.3-4.2,1.3c0,6.1-0.1,12.2-0.1,18.3
			c1.2,5.3,4.6,8.5,9.6,10.2c0.9,0.3,1.6,0.4,1.7,1.5c0.1,1.2,0.3,2.3,0.5,3.5c1.3,7.8,3.9,15,7.8,21.6c2,3.4,4.5,6.7,7.2,9.8
			c5.8,6.4,12.7,11.5,20.4,15.3c0.1,0,0.3,0.1,0.4,0.1c6.3,2.3,12.7,4.6,19.5,5.1c5.8,0.5,11.5,0.4,17.1-0.4
			c5.7-0.8,11.1-2.7,16.4-4.9h0.5c0.1-0.2,0.3-0.3,0.4-0.5c0.4-0.1,0.8-0.2,1.1-0.3c9.5-4.7,16.9-11.6,23-20.1
			c6.2-8.6,9.7-18.2,10.9-28.6c0-0.1,0-0.2,0-0.3c0.1-1,0.6-1.5,1.2-1.8c0,0,0,0,0,0c0.2-0.1,0.4-0.2,0.7-0.2
			c4.6-1.1,7.3-4.1,8.9-8.3c0.4-3.2,0.5-6.4,0.5-9.6C254.2,153.6,254.1,150.4,254.2,147.2z M149.9,157.3c-1.2-0.7-2.1-1.7-2.7-2.9
			c-0.7-1.5-0.8-3.3-0.3-5.2c0.2-0.5,0.3-1,0.6-1.8c-0.9,0-1.7,0.1-2.5,0.2c-2.6,0.3-4.9,1.2-7.1,2.6c-0.7,0.4-1.4,1.4-2.2,0.7
			c-1-0.8,0-1.7,0.5-2.4c2.8-4.6,8.7-6.6,14.1-5.8c2.5,0.4,5,1.4,6.8,3.1c0.5,0.5,1,1,1.4,1.6c2.1,2.8,2,6.1-0.2,8.5
			C156.2,158.4,152.7,159,149.9,157.3z M227.8,135.3c0.2,0.2,0.4,0.4,0.5,0.6c2,2.1,2.6,3.9,2.3,6.1c-10-5-20.6-7.3-31.8-7.5
			c-0.5,0-1.2,0.3-1.4-0.4c-0.2-0.8,0.5-1.1,1-1.4c5.6-3.8,11.8-4.5,18.3-3.2c0.9,0.2,1.8,0.5,2.7,0.8
			C222.5,131.3,225.3,132.9,227.8,135.3z M214.9,157.3c-0.9-0.6-1.7-1.3-2.2-2.2c-1.1-1.8-1.3-4-0.4-6.1c0.2-0.4,0.3-0.8,0.5-1.4
			c-3.7-0.1-6.9,1.1-9.8,2.9c0,0,0,0,0,0c-0.7,0.4-1.4,1.3-2.2,0.5c-0.7-0.8,0.2-1.6,0.6-2.3c0.6-1,1.3-1.8,2.1-2.6
			c2-1.8,4.5-2.9,7.1-3.3c4.7-0.8,9.9,0.6,13,4.4c2.2,2.6,2.1,6.2,0,8.8C221.4,158.5,217.8,159,214.9,157.3z M194.4,189.9
			c1.2,0.4,1.7,1.4,1.6,2.5c0,0.1,0,0.2,0,0.3c0,0,0,0,0,0c-0.3,2.6-1.7,4.6-3.8,6.1c-3.6,2.6-7.7,3.1-11.9,3.4
			c-4.2-0.3-8.3-0.8-11.8-3.4c-1-0.7-1.8-1.5-2.4-2.4c-0.8-1.1-1.3-2.4-1.4-4c-0.1-1.4,0.5-2.2,1.7-2.7c0.9-0.3,1.5,0,1.9,0.5
			c0.2,0.2,0.4,0.5,0.5,0.8c2.9,5,7.7,7.3,13.5,6.3c4.2-0.7,8.1-1.8,9.6-6.5c0.1-0.2,0.2-0.5,0.4-0.6
			C192.7,189.7,193.5,189.6,194.4,189.9z M180.4,169.5c3.9,0,7.8,0,11.7,0c1.6,0,1.8,0.4,1.4,1.9c-0.6,1.9-1.9,3.1-3.2,4.2
			c-5.7,4.6-16.7,3.7-21.7-1.7c-0.4-0.4-0.7-0.8-1-1.3c-1.4-2.6-1.2-3.1,1.6-3.1H180.4z M133.8,125.2c5.1-7.4,12.1-10.3,20.6-9.5
			c0.6,0,1.3,0.1,2,0.2c2.3,0.3,4.6,0.9,6.7,1.8c0.5,0.2,1.4,0.4,1.2,1.2c-0.2,0.8-1,0.5-1.6,0.5c-6.1-0.2-11.9,0.9-17.3,3.8
			c-0.9,0.5-1.7,0.9-2.5,1.4c-4.2,2.6-7.8,5.9-10.4,10.2c0,0,0,0.1-0.1,0.1c-0.2,0.3-0.4,0.5-0.9,1
			C129.9,131.6,131.6,128.3,133.8,125.2C133.7,125.3,133.7,125.2,133.8,125.2z"/>
		<path class="st21" d="M254.2,146.6c-3.5,0-6-2.2-8.2-4.4c-7.4-7-12.4-15.7-16.5-24.9c-2.1-4.7-4.1-9.4-5.3-14.4
			c-0.2-0.8-0.7-1.3-1.7-1.2c-8.6,1.3-17.2,1.9-25.9,2.4c-9.6,0.6-19.2,0.5-28.7,0.2c-9.3-0.3-18.7-0.8-28-2.6
			c-1.9-0.4-3,0.1-3.7,2.3c-2.7,9.5-6.8,18.4-12.1,26.7c-3.6,5.7-7.7,10.9-13.5,14.6c-1.3,0.8-2.6,1.3-4.2,1.3
			c0-0.6-0.1-1.2-0.1-1.9c0-2.2,1-3.6,3.1-4.7c4.7-2.4,8.2-6.3,11.3-10.5c7.2-9.7,12.1-20.5,15.5-32c0.5-1.5,1.4-1.6,2.4-1.4
			c4.4,0.6,8.7,1.1,13.1,1.5c4.3,0.4,8.6,0.9,13,0.8c2.6,0.8,5.3,0.3,8,0.4c0.3,0,0.6,0,0.9,0c0.2,0,0.3,0,0.5,0c4.4,0,8.7,0,13.1,0
			c0.2,0,0.3,0,0.5,0c0.3,0,0.6,0,0.9,0c2.8,0,5.7,0.4,8.5-0.4c8.4-0.2,16.7-1.1,24.9-2.3c1.4-0.2,1.9,0.1,2.4,1.6
			c3.4,11.2,8.1,21.8,15.1,31.2c3.5,4.7,7.2,9.3,12.9,11.7c1.4,0.6,1.4,2.3,1.8,3.6C254.2,145,254.2,145.8,254.2,146.6z"/>
		<path class="st22" d="M254.2,146.6c0-0.8,0-1.6,0-2.4c0.7,0.6,0.5,1.4,0.5,2.2c0,5.4,0,10.8,0,16.3c0,1.3-0.3,2.6-1,3.7
			C254.6,159.8,254.1,153.2,254.2,146.6z"/>
		<path class="st19" d="M106.3,144.7c0,0.6,0.1,1.2,0.1,1.9c0,6.1-0.1,12.2-0.1,18.3C105.6,158.1,105.5,151.4,106.3,144.7z"/>
		<path class="st23" d="M206.9,226.6c0.2,0,0.3,0,0.5,0c0,3.4-0.1,6.9-0.1,10.3C206.4,233.5,207.2,230,206.9,226.6z"/>
		<path class="st24" d="M197.1,98.4c-2.8,0.8-5.6,0.4-8.5,0.4C191.5,97.9,194.3,98.5,197.1,98.4z"/>
		<path class="st24" d="M172.8,98.8c-2.7-0.1-5.4,0.4-8-0.4C167.4,98.5,170.1,97.9,172.8,98.8z"/>
		<path class="st24" d="M174.2,98.8c-0.2,0-0.3,0-0.5,0C173.9,98.5,174,98.5,174.2,98.8z"/>
		<path class="st24" d="M187.8,98.8c-0.2,0-0.3,0-0.5,0C187.4,98.5,187.6,98.5,187.8,98.8z"/>
		<path class="st23" d="M207.4,226.6c0.2-0.2,0.3-0.3,0.5-0.5C207.7,226.3,207.5,226.4,207.4,226.6z"/>
		<path class="st25" d="M212.8,147.5c-3.7-0.1-6.9,1-9.8,2.9c-0.7,0.4-1.4,1.4-2.2,0.5c-0.7-0.8,0.2-1.6,0.6-2.3
			c4.6-7.5,16.6-8.3,22.3-1.5c2.2,2.6,2.2,6.2,0,8.8c-2.2,2.6-5.8,3.1-8.7,1.4c-2.9-1.8-3.9-5.1-2.6-8.3
			C212.4,148.5,212.6,148.1,212.8,147.5z"/>
		<path class="st25" d="M147.5,147.5c-3.6,0-6.7,0.9-9.6,2.8c-0.7,0.4-1.4,1.4-2.2,0.7c-1-0.8,0.1-1.7,0.5-2.4
			c4.5-7.5,17.2-8.1,22.3-1.2c2.1,2.8,2,6.1-0.2,8.5c-2.2,2.5-5.7,3-8.5,1.4c-2.8-1.7-4-4.8-2.9-8.1
			C147.1,148.8,147.3,148.3,147.5,147.5z"/>
		<path class="st26" d="M230.6,142c-10-5-20.6-7.3-31.8-7.6c-0.5,0-1.2,0.3-1.4-0.4c-0.2-0.7,0.5-1.1,1-1.4
			c5.6-3.8,11.8-4.5,18.3-3.1c4.5,1,8.5,3,11.7,6.4C230.3,138,230.9,139.8,230.6,142z"/>
		<path class="st27" d="M180.4,169.5c3.9,0,7.8,0,11.7,0c1.6,0,1.8,0.4,1.4,1.9c-0.6,1.9-1.9,3.1-3.2,4.2
			c-5.7,4.6-16.7,3.7-21.7-1.7c-0.4-0.4-0.7-0.8-1-1.3c-1.4-2.7-1.1-3.1,1.9-3.1C173.1,169.5,176.7,169.5,180.4,169.5z"/>
		<path class="st28" d="M131.5,135.9c-1.6-4.4,0.2-7.7,2.3-10.8c5.5-8,13.2-10.6,22.6-9.3c2.3,0.3,4.6,0.9,6.7,1.8
			c0.5,0.2,1.4,0.4,1.2,1.2c-0.2,0.8-1,0.6-1.6,0.5c-6.1-0.2-11.9,1-17.3,3.8c-5.4,2.8-9.8,6.6-13,11.8
			C132.2,135.2,132,135.4,131.5,135.9z"/>
		<path class="st28" d="M180.2,202.2c-4.2-0.3-8.3-0.8-11.8-3.4c-2.2-1.6-3.6-3.6-3.8-6.4c-0.1-1.4,0.5-2.2,1.7-2.6
			c1.2-0.4,1.9,0.4,2.4,1.3c2.9,5,7.7,7.3,13.5,6.3c4.2-0.7,8.1-1.8,9.6-6.5c0.4-1.1,1.4-1.4,2.5-1c1.2,0.4,1.7,1.4,1.6,2.5
			c-0.3,2.7-1.7,4.8-3.9,6.4C188.5,201.4,184.4,201.9,180.2,202.2z"/>
	</g>
</g>
<g>
	<g>
	</g>
</g>
</svg>
