<?xml version="1.0" encoding="utf-8"?>
<!-- Generator: Adobe Illustrator 22.1.0, SVG Export Plug-In . SVG Version: 6.00 Build 0)  -->
<svg version="1.1" id="Ebene_1" xmlns="http://www.w3.org/2000/svg" xmlns:xlink="http://www.w3.org/1999/xlink" x="0px" y="0px"
	 viewBox="0 0 362 362" style="enable-background:new 0 0 362 362;" xml:space="preserve">
<style type="text/css">
	.st0{opacity:0.5;fill:#3366CC;}
	.st1{fill:#4B322D;}
	.st2{fill:#262E33;}
	.st3{fill:#3B4C5A;}
	.st4{fill:#3A2621;}
	.st5{fill:#3C4D5A;}
	.st6{fill:#2F4351;}
	.st7{fill:#EBB789;}
	.st8{fill:#262E32;}
	.st9{fill:#DADBDC;}
	.st10{fill:#E9B789;}
	.st11{fill:#D2A47A;}
	.st12{fill:#4D3C2C;}
	.st13{fill:#C79B74;}
	.st14{fill:#69523D;}
	.st15{fill:#67503B;}
	.st16{opacity:0.2;fill:#3366CC;}
	.st17{opacity:5.000000e-02;fill:#3366CC;}
	.st18{opacity:0.1;fill:#3366CC;}
	.st19{fill:#EBDBBE;}
	.st20{fill:#FE5C5C;}
	.st21{fill:#CD895A;}
	.st22{fill:#CEC3AE;}
	.st23{fill:#CF8A5B;}
	.st24{fill:#AE774F;}
	.st25{fill:#8D8981;}
	.st26{fill:#938170;}
	.st27{fill:#C3B6A0;}
	.st28{fill:#553925;}
	.st29{fill:#553A25;}
	.st30{fill:#AF754C;}
	.st31{fill:#563A25;}
	.st32{fill:#1F333C;}
	.st33{fill:#FEDDB4;}
	.st34{fill:#724133;}
	.st35{fill:#CF8B5B;}
	.st36{fill:#E5C7A4;}
	.st37{fill:#BB7C52;}
	.st38{fill:#D5E7EE;}
	.st39{fill:#CE8A5A;}
	.st40{fill:#17242B;}
	.st41{fill:#CF8A5A;}
	.st42{fill:#AE754C;}
	.st43{fill:#A9734E;}
	.st44{fill:#CA8759;}
	.st45{fill:#E5E5E5;}
	.st46{fill:#4A322D;}
	.st47{fill:#2A2F31;}
	.st48{fill:#EAB789;}
	.st49{fill:#EBB88A;}
	.st50{fill:#E9B688;}
	.st51{fill:#C69B75;}
	.st52{fill:#CEA279;}
	.st53{fill:#D0A37A;}
	.st54{fill:#EBB889;}
	.st55{fill:#EAB788;}
	.st56{fill:#614C38;}
	.st57{fill:#48392A;}
	.st58{fill:#B98A50;}
	.st59{fill:#B0E1FE;}
	.st60{fill:#AD5D29;}
	.st61{fill:#B48043;}
	.st62{fill:#AE5D29;}
	.st63{fill:#4A2811;}
	.st64{fill:#F2F3F3;}
	.st65{fill:#9D5425;}
	.st66{fill:#361D0C;}
	.st67{fill:#924E22;}
	.st68{fill:#482611;}
	.st69{fill:#492711;}
	.st70{opacity:0.2;}
	.st71{fill:#3366CC;}
	.st72{fill:#D9BA7E;}
	.st73{fill:#929497;}
	.st74{fill:#D5B270;}
	.st75{fill:#B1955F;}
	.st76{fill:#272D2F;}
	.st77{fill:#533B2E;}
	.st78{fill:#51382D;}
	.st79{fill:#221814;}
	.st80{fill:#614335;}
	.st81{fill:#F0F0F0;}
	.st82{fill:#604235;}
	.st83{fill:#573C30;}
	.st84{fill:#281C16;}
	.st85{fill:#FA4E6B;}
	.st86{fill:#FEFEFE;}
	.st87{fill:#2C1B19;}
	.st88{fill:#3A4C5A;}
	.st89{fill:#4A312C;}
	.st90{fill:#614436;}
	.st91{fill:#EFEFEF;}
	.st92{fill:#624436;}
	.st93{fill:#E0E0E1;}
	.st94{fill:#1D1410;}
	.st95{fill:#C83306;}
	.st96{fill:#FEDAB3;}
	.st97{fill:#C73306;}
	.st98{fill:#272F33;}
	.st99{fill:#EDECEC;}
	.st100{fill:#FDD9B3;}
	.st101{fill:#D4B695;}
	.st102{fill:#E5C5A1;}
	.st103{fill:#4F4337;}
	.st104{fill:#695A4A;}
	.st105{fill:#FC506D;}
	.st106{fill:#EEEEEE;}
	.st107{fill:#21272B;}
	.st108{fill:#C9C9C9;}
	.st109{fill:#D4B270;}
	.st110{fill:#FDDAB3;}
	.st111{fill:#E5C6A2;}
	.st112{fill:#B8A07B;}
	.st113{fill:#FDFDFC;}
	.st114{fill:#6A5B4B;}
	.st115{fill:#D6B897;}
	.st116{fill:#505050;}
	.st117{fill:#AD5D2A;}
	.st118{fill:#5199E3;}
	.st119{fill:#E6DFE0;}
	.st120{fill:#F1F2F3;}
	.st121{fill:#4580BF;}
	.st122{fill:#C9CBCD;}
	.st123{fill:#E8D8BB;}
	.st124{fill:#371E0E;}
	.st125{fill:#FBFBFB;}
	.st126{opacity:0.5;}
	.st127{fill:#84A3E0;}
	.st128{fill:#D6D6D6;}
	.st129{fill-opacity:0.1;}
	.st130{fill:#E6E6E6;}
	.st131{fill:#F2F2F2;}
	.st132{fill-opacity:0.16;}
	.st133{fill-opacity:0.7;}
	.st134{fill:#FFFFFF;}
	.st135{fill-opacity:0.6;}
</style>
<g>
	<g class="st126">
		<path class="st71" d="M362,181c0,58.2-27.5,110-70.1,143.1c-0.1,0.1-0.2,0.2-0.3,0.2c0,0-0.1,0.1-0.2,0.1
			c-0.1,0.1-0.3,0.2-0.4,0.3c-18,13.8-38.6,24.3-60.9,30.6c-0.1,0-0.2,0.1-0.3,0.1c-0.4,0.1-0.7,0.2-1.1,0.3
			c-5.9,1.6-11.9,2.9-18.1,4c-0.3,0-0.6,0.1-0.9,0.1c-9.4,1.5-19,2.3-28.8,2.3c-10.2,0-20.2-0.8-30-2.5c0,0,0,0,0,0
			c-0.1,0-0.3,0-0.4-0.1c-5.3-0.9-10.5-2-15.6-3.4c-0.9-0.2-1.9-0.5-2.8-0.8c-0.1,0-0.2,0-0.3-0.1c-22.3-6.3-43-16.8-60.9-30.5
			c-0.4-0.3-0.8-0.6-1.2-0.9c-0.2-0.2-0.4-0.3-0.6-0.4c-0.1-0.1-0.2-0.2-0.3-0.3C26.9,289.9,0,238.6,0,181C0,81,81,0,181,0
			S362,81,362,181z"/>
	</g>
</g>
<g id="Avataaar_1_">
	<g id="Avataaar_x2F_Circle" transform="translate(-825 -1100)">
		<g transform="translate(825 1100)">
			<g id="Avataaar">
				<g id="Body" transform="translate(32 36)">
					<g>
						<path class="st54" d="M258.9,287.6v1.2c-4.1,3.1-8.3,6.1-12.6,8.8H51.7c-4.4-2.8-8.6-5.8-12.7-8.9c-0.2-0.1-0.4-0.3-0.6-0.4
							v-0.6l52.3-52.3l19.9-19.9l2.5-2.5l0.5-0.5l4.1-4.1l0.1-0.1h4.4v-20.3c-0.4-0.2-0.8-0.4-1.1-0.6s-0.8-0.4-1.1-0.6
							c-0.4-0.2-0.9-0.5-1.3-0.7c-0.3-0.2-0.6-0.3-0.9-0.5c-0.4-0.2-0.7-0.4-1.1-0.6c-0.7-0.4-1.4-0.8-2-1.3
							c-0.3-0.2-0.6-0.4-0.9-0.6c-0.5-0.4-1.1-0.8-1.6-1.1c-0.4-0.3-0.8-0.6-1.3-0.9c-0.7-0.5-1.4-1.1-2.1-1.7
							c-0.4-0.3-0.8-0.7-1.2-1c-0.5-0.5-1-0.9-1.6-1.4c-0.9-0.9-1.8-1.8-2.7-2.7c-0.4-0.5-0.9-1-1.3-1.5c-0.4-0.5-0.8-1-1.3-1.5
							c-0.5-0.6-0.9-1.2-1.4-1.8c-0.3-0.4-0.6-0.8-0.9-1.2c-0.2-0.3-0.5-0.6-0.7-0.9c-0.2-0.3-0.4-0.6-0.6-0.9
							c-0.4-0.6-0.8-1.3-1.2-1.9c-0.3-0.4-0.6-0.9-0.8-1.4c-0.3-0.5-0.6-1.1-0.9-1.6c-0.2-0.3-0.3-0.6-0.5-0.9
							c-0.2-0.3-0.3-0.6-0.5-0.9c-0.2-0.5-0.5-1-0.7-1.4c-0.1-0.2-0.1-0.3-0.2-0.4c-0.3-0.5-0.5-1.1-0.7-1.6c-0.5-1.2-1-2.5-1.4-3.8
							c-0.2-0.5-0.4-1.1-0.5-1.6c-0.1-0.4-0.3-0.9-0.4-1.4c-0.1-0.3-0.1-0.5-0.2-0.8c-0.2-0.6-0.4-1.3-0.5-1.9
							c-0.3-1.3-0.6-2.6-0.8-4c-0.2-1.3-0.4-2.7-0.6-4c-0.1,0-0.2,0-0.3-0.1c-0.2,0-0.4-0.1-0.7-0.1c-5.9-1.3-10.3-6.6-10.3-12.9
							v-15.4c0-5.6,3.5-10.4,8.5-12.3c0.7-0.3,1.4-0.5,2.1-0.6c0.1,0,0.3,0,0.4-0.1h0v-6.8c0-17.1,6.9-32.5,18.1-43.7
							c0.2-0.2,0.3-0.3,0.5-0.5c0,0,0,0,0,0c11.1-10.9,26.4-17.6,43.2-17.6c17,0,32.5,6.9,43.7,18.1c11.2,11.2,18.1,26.6,18.1,43.7
							v6.8h0c0.1,0,0.3,0,0.4,0.1c0.5,0.1,1,0.2,1.5,0.4c5.3,1.8,9,6.7,9,12.5v15.4c0,6.3-4.4,11.6-10.3,12.9
							c-0.2,0.1-0.5,0.1-0.7,0.1c-0.1,0-0.2,0-0.3,0.1c-0.1,1.4-0.3,2.7-0.6,4c-0.2,1.3-0.5,2.7-0.8,4c-0.1,0.7-0.3,1.3-0.5,1.9
							c-0.1,0.3-0.1,0.5-0.2,0.8c-0.1,0.5-0.3,0.9-0.4,1.4c-0.2,0.6-0.4,1.1-0.5,1.6c-0.4,1.3-0.9,2.5-1.4,3.8
							c-0.2,0.6-0.5,1.1-0.7,1.6c-0.1,0.1-0.1,0.3-0.2,0.4c-0.2,0.5-0.5,1-0.7,1.4c-0.2,0.3-0.3,0.6-0.5,0.9
							c-0.2,0.3-0.3,0.6-0.5,0.9c-0.3,0.5-0.6,1.1-0.9,1.6c-0.3,0.5-0.5,0.9-0.8,1.4c-0.4,0.6-0.8,1.3-1.2,1.9
							c-0.2,0.3-0.4,0.6-0.6,0.9c-0.2,0.3-0.4,0.6-0.7,0.9c-0.3,0.4-0.6,0.8-0.9,1.2c-0.5,0.6-0.9,1.2-1.4,1.8
							c-0.4,0.5-0.8,1-1.3,1.5c-0.4,0.5-0.9,1-1.3,1.5c-0.9,0.9-1.7,1.8-2.7,2.7c-0.5,0.5-1,1-1.6,1.4c-0.3,0.3-0.7,0.6-1,0.9
							c-0.7,0.6-1.5,1.2-2.3,1.8c-0.4,0.3-0.8,0.6-1.3,0.9c-0.5,0.4-1.1,0.8-1.6,1.1c-0.3,0.2-0.6,0.4-0.9,0.6
							c-0.7,0.4-1.4,0.9-2.1,1.3c-0.4,0.2-0.7,0.4-1.1,0.6c-0.3,0.2-0.6,0.3-0.9,0.5c-0.4,0.3-0.9,0.5-1.3,0.7
							c-0.4,0.2-0.8,0.4-1.1,0.6c-0.4,0.2-0.8,0.4-1.1,0.6v20.3h4.4c1.2,0,2.4,0,3.5,0.1c0.2,0,0.3,0,0.5,0c2.1,0.1,4.2,0.3,6.3,0.6
							h0c17.8,2.3,33.7,10.5,45.8,22.6c3.3,3.3,6.3,6.9,8.9,10.7c0.5,0.7,1,1.4,1.4,2.1c0.4,0.6,0.8,1.3,1.2,1.9
							c0.1,0.2,0.3,0.4,0.4,0.6c0.3,0.5,0.6,1,0.9,1.6c0.1,0.1,0.1,0.2,0.2,0.3c0.2,0.4,0.4,0.7,0.6,1.1c0.1,0.2,0.2,0.3,0.3,0.5
							c0.3,0.5,0.5,1,0.8,1.5c0.1,0.1,0.1,0.3,0.2,0.4c0.1,0.2,0.2,0.3,0.3,0.5c0.2,0.5,0.5,1,0.7,1.4c0,0.1,0.1,0.1,0.1,0.2
							c0,0,0,0,0,0c0,0.1,0.1,0.2,0.1,0.3c0.2,0.4,0.4,0.8,0.5,1.1c0.2,0.4,0.4,0.9,0.6,1.3c0.1,0.3,0.3,0.6,0.4,0.9
							c0,0,0,0.1,0,0.1c0,0.1,0,0.1,0.1,0.2c0,0.1,0.1,0.1,0.1,0.2c0.1,0.2,0.1,0.3,0.2,0.5c0,0,0,0,0,0c0.1,0.3,0.2,0.6,0.4,0.9
							c0.2,0.6,0.4,1.1,0.6,1.7v0c0,0,0,0,0,0c0.2,0.6,0.4,1.3,0.6,1.9c0,0,0,0.1,0,0.2c0,0,0,0.1,0,0.1c0,0.1,0,0.1,0.1,0.2
							c0,0,0,0.1,0,0.1c0,0,0,0,0,0c0,0,0,0.1,0,0.1c0.1,0.3,0.2,0.5,0.3,0.8c0.2,0.6,0.4,1.2,0.5,1.8c0.5,1.8,0.9,3.7,1.3,5.5
							c0.1,0.6,0.3,1.3,0.4,1.9c0,0.3,0.1,0.6,0.1,0.9c0,0.3,0.1,0.6,0.1,0.9c0,0,0,0.1,0,0.1c0.1,0.6,0.2,1.2,0.2,1.8
							c0.1,0.6,0.1,1.1,0.2,1.7c0,0,0,0.1,0,0.1c0,0.1,0,0.2,0,0.3c0,0.2,0,0.5,0.1,0.7c0,0.3,0.1,0.7,0.1,1c0,0.4,0.1,0.7,0.1,1.1
							c0,0.3,0,0.6,0.1,0.9c0,0,0,0,0,0.1c0,0.3,0,0.6,0,0.8c0,0.4,0,0.8,0,1.1C258.9,286.3,258.9,286.9,258.9,287.6z"/>
					</g>
					<path id="Neck-Shadow" class="st129" d="M210.4,115.7v25.4c0,34.1-27.6,61.7-61.7,61.7c-34.1,0-61.7-27.6-61.7-61.7v-25.4v16.5
						c0,34.1,27.6,61.7,61.7,61.7c34.1,0,61.7-27.6,61.7-61.7V115.7z"/>
				</g>
				<g id="Clothing_x2F_Blazer-_x2B_-Sweater" transform="translate(0 170)">
					<g id="Clothes">
						<path class="st130" d="M290.9,153.6v1.2c-4.1,3.1-8.3,6.1-12.6,8.8c-14.4,9.2-30.1,16.4-46.9,21.3c-0.4,0.1-0.9,0.3-1.3,0.4
							c-0.1,0-0.2,0.1-0.3,0.1c-0.4,0.1-0.7,0.2-1.1,0.3c-4.7,1.3-9.4,2.4-14.2,3.3c-0.6,0.1-1.3,0.2-1.9,0.3
							c-0.6,0.1-1.3,0.2-1.9,0.3c-0.3,0.1-0.6,0.1-0.9,0.1c-9.4,1.5-19,2.3-28.8,2.3c-10.2,0-20.2-0.8-30-2.5c0,0,0,0,0,0
							c0,0,0,0,0,0c-0.1,0-0.3,0-0.4-0.1c-0.6-0.1-1.3-0.2-1.9-0.3c-4.6-0.8-9.2-1.8-13.7-3c-0.9-0.2-1.9-0.5-2.8-0.8
							c-0.1,0-0.2-0.1-0.3-0.1c-0.7-0.2-1.3-0.4-2-0.6c-16.5-4.9-32-12-46.2-21.1c-4.4-2.8-8.6-5.8-12.7-8.9
							c-0.2-0.1-0.4-0.3-0.6-0.4v-0.6c0-1.1,0-2.3,0.1-3.4c0-0.2,0-0.4,0-0.5c0-0.6,0.1-1.3,0.1-2c0.1-0.8,0.1-1.7,0.2-2.5
							c0.1-0.5,0.1-1.1,0.2-1.6c0.1-0.7,0.2-1.3,0.3-2c0.1-0.7,0.2-1.3,0.3-2c0.1-0.5,0.2-1.1,0.3-1.6c0.1-0.6,0.2-1.2,0.4-1.8
							c0.1-0.5,0.2-0.9,0.3-1.4c0.1-0.4,0.2-0.8,0.3-1.2c0.1-0.6,0.3-1.1,0.4-1.7c0.2-0.6,0.4-1.3,0.6-1.9c0.2-0.6,0.4-1.2,0.6-1.8
							c0-0.1,0-0.2,0.1-0.3c0.2-0.6,0.4-1.1,0.6-1.6c0.4-1.2,0.9-2.4,1.4-3.6c0.3-0.6,0.5-1.2,0.8-1.8c0,0,0,0,0,0
							c0.3-0.6,0.5-1.2,0.8-1.7c0.3-0.6,0.6-1.2,0.9-1.7c0.3-0.6,0.6-1.1,0.9-1.7c0.3-0.6,0.6-1.1,0.9-1.7c0.3-0.6,0.6-1.1,1-1.7
							c0.7-1.1,1.4-2.2,2.1-3.2c0.7-1.1,1.4-2.1,2.2-3.1c0.4-0.5,0.8-1,1.2-1.5c1.2-1.5,2.4-3,3.7-4.4c0.4-0.5,0.9-0.9,1.3-1.4
							c0.4-0.5,0.9-0.9,1.3-1.4c0.4-0.4,0.9-0.9,1.4-1.3c0.5-0.5,1-0.9,1.5-1.4c1.4-1.2,2.8-2.4,4.3-3.6c2.5-2,5.1-3.8,7.9-5.5
							c0.5-0.3,1.1-0.7,1.6-1c1.3-0.7,2.5-1.4,3.8-2c0.4-0.2,0.9-0.4,1.3-0.6c0.7-0.3,1.4-0.7,2.1-1c0.5-0.2,0.9-0.4,1.4-0.6
							c0.4-0.2,0.8-0.3,1.2-0.5c0.4-0.2,0.8-0.3,1.2-0.5c0.4-0.2,0.8-0.3,1.3-0.5c0.7-0.3,1.5-0.5,2.2-0.8c0.4-0.2,0.9-0.3,1.3-0.4
							c0.1,0,0.3-0.1,0.4-0.1c0.5-0.2,1-0.3,1.5-0.4c0.1,0,0.3-0.1,0.4-0.1c0.5-0.1,0.9-0.3,1.4-0.4c0.4-0.1,0.9-0.2,1.3-0.3
							c0.4-0.1,0.9-0.2,1.3-0.3c0.3-0.1,0.6-0.1,1-0.2c0.4-0.1,0.9-0.2,1.3-0.3c0.5-0.1,1-0.2,1.5-0.3c0.3,0,0.6-0.1,0.9-0.1
							c0.5-0.1,1-0.2,1.5-0.2c0.3-0.1,0.6-0.1,1-0.1c0.1,0,0.3,0,0.4-0.1c0.4-0.1,0.9-0.1,1.3-0.2c0.3,0,0.7-0.1,1-0.1
							c0.1,0,0.3,0,0.4,0c0.5,0,1.1-0.1,1.6-0.1c0.1,0,0.2,0,0.3,0c0.4,0,0.8-0.1,1.3-0.1c0.1,0,0.3,0,0.5,0h0.1
							c1.1,0,2.3-0.1,3.5-0.1h1.4c-0.1,1.1-0.2,2.2-0.2,3.3c0,10.4,6.2,19.4,15.3,24.1c4.3,2.2,9.2,3.5,14.4,3.5
							c5.2,0,10.2-1.3,14.4-3.5c9.1-4.7,15.3-13.7,15.3-24.1c0-1.1-0.1-2.2-0.2-3.3h1.3c1.2,0,2.4,0,3.5,0.1c0.2,0,0.4,0,0.5,0
							c0.2,0,0.4,0,0.6,0c0.3,0,0.6,0,0.9,0.1c0.9,0.1,1.7,0.1,2.6,0.2c0.6,0.1,1.3,0.2,2,0.2c0.1,0,0.2,0,0.3,0
							c0.5,0.1,1,0.1,1.4,0.2c0.8,0.1,1.5,0.2,2.2,0.4c0.5,0.1,0.9,0.2,1.3,0.3c2.2,0.4,4.3,0.9,6.5,1.6c0.6,0.2,1.2,0.3,1.8,0.5
							c0.8,0.2,1.6,0.5,2.3,0.8c0.5,0.2,0.9,0.3,1.4,0.5c0.5,0.2,1,0.4,1.5,0.6c0.3,0.1,0.6,0.2,0.9,0.4c0.4,0.1,0.8,0.3,1.2,0.5
							c0.5,0.2,1,0.4,1.5,0.6c0.4,0.2,0.7,0.3,1.1,0.5c0.8,0.4,1.6,0.7,2.3,1.1c0.3,0.1,0.6,0.3,0.9,0.4c0.4,0.2,0.8,0.4,1.2,0.6
							c0.4,0.2,0.8,0.4,1.2,0.7c0.5,0.3,1,0.6,1.4,0.8c0.5,0.3,1,0.6,1.4,0.9c0.1,0.1,0.2,0.1,0.3,0.2c0.4,0.2,0.7,0.5,1.1,0.7
							c0.2,0.1,0.3,0.2,0.5,0.3c0.4,0.3,0.9,0.6,1.3,0.9c0.4,0.3,0.9,0.6,1.3,0.9c0.6,0.4,1.1,0.8,1.6,1.2c0.5,0.4,0.9,0.7,1.4,1.1
							c1.6,1.2,3.1,2.5,4.5,3.9c0.4,0.3,0.7,0.7,1.1,1c0.4,0.4,0.9,0.9,1.3,1.3c0.4,0.4,0.9,0.9,1.3,1.3c1.3,1.3,2.5,2.7,3.6,4.1
							c0.8,0.9,1.5,1.9,2.3,2.9c0.5,0.7,1,1.4,1.5,2.1c0.5,0.7,1,1.4,1.4,2.1c0.4,0.6,0.8,1.3,1.2,1.9c0.1,0.2,0.3,0.4,0.4,0.6
							c0.3,0.5,0.6,1,0.9,1.6c0.1,0.1,0.1,0.2,0.2,0.3c0.2,0.4,0.4,0.7,0.6,1.1c0.2,0.4,0.5,0.8,0.7,1.3c0.2,0.4,0.4,0.7,0.6,1.1
							c0.1,0.2,0.2,0.3,0.3,0.5c0.2,0.5,0.5,1,0.7,1.4c0,0.1,0.1,0.1,0.1,0.2c0,0,0,0,0,0c0,0.1,0.1,0.2,0.1,0.3
							c0.2,0.4,0.4,0.8,0.5,1.1c0.2,0.4,0.4,0.9,0.6,1.3c0.1,0.3,0.3,0.6,0.4,0.9c0,0,0,0.1,0,0.1c0,0.1,0,0.1,0.1,0.2
							c0,0.1,0.1,0.1,0.1,0.2c0.1,0.2,0.1,0.3,0.2,0.5c0,0,0,0,0,0c0.1,0.3,0.2,0.6,0.4,0.9c0.2,0.5,0.4,0.9,0.5,1.4
							c0,0.1,0.1,0.2,0.1,0.3v0c0,0,0,0,0,0c0.1,0.4,0.3,0.8,0.4,1.2c0.1,0.2,0.2,0.5,0.2,0.7c0,0,0,0.1,0,0.2c0,0,0,0.1,0,0.1
							c0,0.1,0,0.1,0.1,0.2c0,0,0,0.1,0,0.1c0,0,0,0,0,0c0,0,0,0.1,0,0.1c0.2,0.6,0.4,1.2,0.5,1.8c0,0.1,0,0.1,0.1,0.2
							c0.1,0.5,0.3,1,0.4,1.4c0.1,0.5,0.2,0.9,0.4,1.4c0.1,0.4,0.2,0.8,0.3,1.3c0.2,0.7,0.3,1.4,0.4,2.1c0.1,0.5,0.2,0.9,0.3,1.4
							c0.1,0.5,0.2,0.9,0.2,1.4c0,0.3,0.1,0.6,0.1,0.9c0,0,0,0.1,0,0.1c0.1,0.6,0.2,1.2,0.2,1.8c0.1,0.6,0.1,1.1,0.2,1.7
							c0,0,0,0.1,0,0.1c0,0.1,0,0.2,0,0.3c0,0.2,0,0.5,0.1,0.7c0,0.3,0.1,0.7,0.1,1c0,0.1,0,0.1,0,0.2c0,0.3,0,0.6,0.1,0.9
							c0,0.3,0,0.6,0.1,0.9c0,0,0,0,0,0.1v0.1c0,0.2,0,0.5,0,0.7c0,0.4,0,0.8,0,1.1C290.9,152.3,290.9,152.9,290.9,153.6z"/>
					</g>
					<g id="Blazer" transform="translate(32 28)">
						<path id="Saco" class="st88" d="M258.9,123.7c0-0.4,0-0.8,0-1.1c0-0.2,0-0.5,0-0.7c0-0.6-0.1-1.3-0.1-1.9
							c0-0.4-0.1-0.8-0.1-1.2c0-0.2,0-0.5-0.1-0.7c0-0.1,0-0.2,0-0.3c0,0,0-0.1,0-0.1c-0.1-0.6-0.1-1.1-0.2-1.7
							c-0.1-0.6-0.1-1.2-0.2-1.8c0-0.1,0-0.1,0-0.1c0-0.3-0.1-0.6-0.1-0.9c-0.1-0.3-0.1-0.6-0.1-0.9c0-0.2-0.1-0.3-0.1-0.5
							c-0.1-0.5-0.2-0.9-0.3-1.4c-0.1-0.7-0.3-1.4-0.4-2.1c-0.1-0.4-0.2-0.9-0.3-1.3c-0.1-0.5-0.2-0.9-0.4-1.4
							c-0.1-0.3-0.1-0.5-0.2-0.8c-0.1-0.2-0.1-0.4-0.2-0.6c0-0.1,0-0.1-0.1-0.2c-0.1-0.3-0.2-0.7-0.3-1c-0.1-0.3-0.2-0.5-0.3-0.8
							c0,0,0-0.1,0-0.1c0,0,0,0,0,0c0,0,0-0.1,0-0.1c0-0.1,0-0.1-0.1-0.2c0,0,0-0.1,0-0.1c0-0.1,0-0.1,0-0.2
							c-0.1-0.2-0.1-0.5-0.2-0.7c-0.1-0.4-0.3-0.8-0.4-1.2c0,0,0,0,0,0v0c0-0.1-0.1-0.2-0.1-0.3c-0.2-0.5-0.3-0.9-0.5-1.4
							c-0.1-0.3-0.2-0.6-0.4-0.9c0,0,0,0,0,0c-0.1-0.2-0.1-0.3-0.2-0.5c0-0.1,0-0.1-0.1-0.2c0,0,0-0.1-0.1-0.2c0,0,0-0.1,0-0.1
							c-0.1-0.3-0.2-0.6-0.4-0.9c-0.2-0.4-0.4-0.9-0.6-1.3c-0.2-0.4-0.3-0.8-0.5-1.1c0-0.1-0.1-0.2-0.1-0.3c0,0,0,0,0,0
							c0-0.1-0.1-0.1-0.1-0.2c-0.2-0.5-0.4-1-0.7-1.4c-0.1-0.2-0.2-0.3-0.3-0.5c-0.2-0.4-0.4-0.7-0.6-1.1c-0.2-0.4-0.4-0.9-0.7-1.3
							c-0.2-0.4-0.4-0.7-0.6-1.1c-0.1-0.1-0.1-0.2-0.2-0.3c-0.3-0.5-0.6-1-0.9-1.6c-0.1-0.2-0.2-0.4-0.4-0.6
							c-0.4-0.7-0.8-1.3-1.2-1.9c-0.5-0.7-0.9-1.4-1.4-2.1c-0.5-0.7-1-1.4-1.5-2.1c-0.7-1-1.5-1.9-2.3-2.9c-1.2-1.4-2.4-2.8-3.6-4.1
							c-0.4-0.4-0.9-0.9-1.3-1.3c-0.4-0.4-0.9-0.9-1.3-1.3c-0.4-0.3-0.7-0.7-1.1-1c-1.5-1.3-3-2.6-4.5-3.9c-0.4-0.4-0.9-0.7-1.4-1.1
							c-0.5-0.4-1.1-0.8-1.6-1.2c-0.4-0.3-0.9-0.6-1.3-0.9c-0.4-0.3-0.9-0.6-1.3-0.9c-0.2-0.1-0.3-0.2-0.5-0.3
							c-0.4-0.2-0.7-0.5-1.1-0.7c-0.1-0.1-0.2-0.1-0.3-0.2c-0.5-0.3-1-0.6-1.4-0.9c-0.5-0.3-0.9-0.6-1.4-0.8
							c-0.4-0.2-0.8-0.4-1.2-0.7c-0.4-0.2-0.8-0.4-1.2-0.6c-0.3-0.1-0.6-0.3-0.9-0.4c-0.8-0.4-1.5-0.8-2.3-1.1
							c-0.4-0.2-0.7-0.3-1.1-0.5c-0.5-0.2-1-0.4-1.5-0.6c-0.4-0.2-0.8-0.3-1.2-0.5c-0.3-0.1-0.6-0.3-0.9-0.4c-0.5-0.2-1-0.4-1.5-0.6
							c-0.4-0.2-0.9-0.3-1.4-0.5c-0.8-0.3-1.5-0.5-2.3-0.8c-0.6-0.2-1.2-0.4-1.8-0.5c-2.1-0.6-4.3-1.1-6.5-1.6
							c-0.4-0.1-0.9-0.2-1.3-0.3c-0.7-0.1-1.5-0.3-2.2-0.4c-0.5-0.1-0.9-0.1-1.4-0.2c-0.1,0-0.2,0-0.3,0c-0.6-0.1-1.3-0.2-2-0.2
							c-0.9-0.1-1.7-0.2-2.6-0.2c-0.3,0-0.6-0.1-0.9-0.1v0c0.1,0.6,0.3,1.2,0.4,1.7c1,3.9,1.8,8,2.5,12.2c1.5,9.2,2.3,19.1,2.3,29.4
							c0,7.8-1.7,26.6-3.8,45.8c-1,8.7-2,17.4-3.1,25.3c4.8-0.9,9.6-2,14.2-3.3c0.4-0.1,0.7-0.2,1.1-0.3c0.1,0,0.2-0.1,0.3-0.1
							c0.4-0.1,0.9-0.2,1.3-0.4c16.8-4.9,32.5-12.1,46.9-21.3c4.3-2.8,8.5-5.7,12.6-8.8v-1.2C258.9,124.9,258.9,124.3,258.9,123.7z
							 M114.6,135.6c-0.3-1.9-0.6-3.7-0.9-5.6c-2.7-17.3-4.8-33.3-4.8-40.2c0-9.1,0.6-17.9,1.8-26.2c0.6-4.4,1.4-8.7,2.4-12.8
							c0.3-1.5,0.7-3,1.1-4.4c0,0,0,0,0-0.1h-0.1c-0.2,0-0.3,0-0.5,0c-0.4,0-0.8,0-1.3,0.1c-0.1,0-0.2,0-0.3,0
							c-0.5,0-1.1,0.1-1.6,0.1c-0.1,0-0.3,0-0.4,0c-0.3,0-0.7,0.1-1,0.1c-0.4,0-0.9,0.1-1.3,0.2c-0.1,0-0.3,0-0.4,0.1
							c-0.3,0-0.6,0.1-1,0.1c-0.5,0.1-1,0.1-1.5,0.2c-0.3,0-0.6,0.1-0.9,0.1c-0.5,0.1-1,0.2-1.5,0.3c-0.5,0.1-0.9,0.2-1.3,0.3
							c-0.3,0.1-0.6,0.1-1,0.2c-0.4,0.1-0.9,0.2-1.3,0.3c-0.5,0.1-0.9,0.2-1.3,0.3c-0.5,0.1-0.9,0.2-1.4,0.4c-0.1,0-0.3,0.1-0.4,0.1
							c-0.5,0.1-1,0.3-1.5,0.4c-0.1,0-0.3,0.1-0.4,0.1c-0.4,0.1-0.9,0.3-1.3,0.4c-0.8,0.3-1.5,0.5-2.2,0.8c-0.4,0.2-0.9,0.3-1.3,0.5
							c-0.4,0.1-0.8,0.3-1.2,0.5c-0.4,0.2-0.8,0.3-1.2,0.5c-0.5,0.2-0.9,0.4-1.4,0.6c-0.7,0.3-1.4,0.7-2.1,1
							c-0.4,0.2-0.9,0.4-1.3,0.6c-1.3,0.7-2.5,1.3-3.8,2c-0.5,0.3-1.1,0.6-1.6,1c-2.7,1.7-5.4,3.5-7.9,5.5c-1.5,1.1-2.9,2.3-4.3,3.6
							c-0.5,0.4-1,0.9-1.5,1.4c-0.5,0.4-0.9,0.9-1.4,1.3c-0.5,0.4-0.9,0.9-1.3,1.4c-0.4,0.5-0.9,0.9-1.3,1.4
							c-1.3,1.4-2.5,2.9-3.7,4.4c-0.4,0.5-0.8,1-1.2,1.5c-0.8,1-1.5,2.1-2.2,3.1c-0.7,1.1-1.4,2.1-2.1,3.2c-0.3,0.6-0.6,1.1-1,1.7
							c-0.3,0.5-0.6,1.1-0.9,1.7c-0.3,0.6-0.6,1.1-0.9,1.7c-0.3,0.6-0.6,1.1-0.9,1.7c-0.3,0.6-0.6,1.2-0.8,1.7c0,0,0,0,0,0
							c-0.3,0.6-0.5,1.2-0.8,1.8c-0.5,1.2-1,2.4-1.4,3.6c-0.2,0.5-0.4,1.1-0.6,1.6c0,0.1-0.1,0.2-0.1,0.3c-0.2,0.6-0.4,1.2-0.6,1.8
							c-0.2,0.6-0.4,1.2-0.6,1.9c-0.2,0.6-0.3,1.1-0.4,1.7c-0.1,0.4-0.2,0.8-0.3,1.2c-0.1,0.5-0.2,0.9-0.3,1.4
							c-0.1,0.6-0.3,1.2-0.4,1.8c-0.1,0.6-0.2,1.1-0.3,1.6c-0.1,0.7-0.2,1.3-0.3,2c-0.1,0.7-0.2,1.3-0.3,2c-0.1,0.5-0.1,1.1-0.2,1.6
							c-0.1,0.8-0.2,1.7-0.2,2.5c0,0.7-0.1,1.3-0.1,2c0,0.2,0,0.4,0,0.5c-0.1,1.1-0.1,2.3-0.1,3.4v0.6c0.2,0.2,0.4,0.3,0.6,0.4
							c4.1,3.2,8.3,6.1,12.7,8.9c14.2,9.1,29.7,16.2,46.2,21.1c0.7,0.2,1.3,0.4,2,0.6c0.1,0,0.2,0.1,0.3,0.1
							c0.9,0.3,1.9,0.5,2.8,0.8c4.5,1.2,9.1,2.2,13.7,3c0.6,0.1,1.3,0.2,1.9,0.3c0.1,0,0.3,0.1,0.4,0.1c0,0,0,0,0,0c0,0,0,0,0,0
							C117.6,153.4,116,144.4,114.6,135.6z"/>
						<path id="Pocket-hanky" class="st130" d="M202.7,109.2l10.5-7.9l0,0c1.6-1.2,3.8-1.2,5.4,0l7.3,5.6L202.7,109.2z"/>
						<path class="st6" d="M103,158.1c-0.9-0.2-1.9-0.5-2.8-0.8c-0.1,0-0.2-0.1-0.3-0.1c-0.7-0.2-1.3-0.4-2-0.6l-3.8-21.1l-7.1-39.7
							l6.6-9.9l-6.6-6.6l3.8-6l16.7-26.3l0.5-0.7c2.2-0.7,4.4-1.1,6.6-1.1c0,0.1,0,0.2,0,0.3c-0.1,0.3-0.1,0.6-0.2,1c0,0,0,0,0,0.1
							c-0.2,1.2-0.4,2.5-0.6,3.9c-0.6,4.7-1,10.6-1.2,17.4c-0.6,17.2-0.2,40.1,1.3,62.1c0.1,1.9,0.3,3.7,0.4,5.6
							c0.7,8.8,1.5,17.5,2.5,25.5C112,160.3,107.5,159.3,103,158.1z"/>
						<path class="st6" d="M203.8,86l6.6,9.9l-1.5,8.6l-0.7,4.1l-4.9,27l-3.8,21.3c-0.4,0.1-0.9,0.3-1.3,0.4c-0.1,0-0.2,0.1-0.3,0.1
							c-0.4,0.1-0.7,0.2-1.1,0.3c-4.7,1.3-9.4,2.4-14.2,3.3c-0.6,0.1-1.3,0.2-1.9,0.3c1-8,1.9-16.7,2.6-25.6
							c1.8-23.8,2.4-49,1.7-67.7v0c-0.3-9-0.9-16.4-1.8-21.4c0,0,0,0,0-0.1c0-0.3-0.1-0.6-0.2-0.9c0-0.1,0-0.2,0-0.3
							c2.2,0,4.4,0.4,6.6,1.1l0.4,0.7h0l0,0.1l0,0l20.5,32.3L203.8,86z"/>
					</g>
					<path id="Collar" class="st131" d="M166.2,101.8l-1-3.1l0.1-0.1c-6.7-3.5-11.1-9.1-11.1-15.6V66.1c-3.1,2.1-5.8,4.6-7.8,7.4
						c-0.2,0.3-0.5,0.7-0.7,1l0,0c-1.4,2.2-2.5,4.5-3.1,7c-0.4,1.6-0.6,3.2-0.6,4.9c0,1.9,0.3,3.7,0.7,5.4c0.4,1.4,0.9,2.8,1.6,4.2
						c2.2,4.3,5.7,8,10.3,11l6.6-5.2l5,0.4L166.2,101.8z M216.6,76.3c-0.3-0.6-0.7-1.2-1-1.8c0,0,0,0,0-0.1
						c-0.2-0.3-0.4-0.6-0.7-0.9c-2-2.8-4.6-5.3-7.8-7.4V83c0,6.4-4.4,12.1-11.1,15.6l0.1,0.1l-1,3.1l-0.1,0.3l5-0.4l6.5,5.2
						c4.6-3,8.1-6.7,10.3-11v0c1.2-2.4,2-4.8,2.2-7.4c0.1-0.7,0.1-1.4,0.1-2.1C219.2,82.8,218.3,79.4,216.6,76.3z"/>
				</g>
				<g id="Face" transform="translate(76 82)">
					<g id="Nose_x2F_Default" transform="translate(28 40)">
						<path id="Nose" class="st132" d="M63.4,46.3c0,4.9,5.9,8.8,13.2,8.8l0,0c7.3,0,13.2-3.9,13.2-8.8H63.4z"/>
					</g>
				</g>
				<g id="Top">
					<g id="Top_x2F_Short-Hair_x2F_Short-Curly">
						<g transform="translate(-1)">
							<g id="Facial-Hair_x2F_Beard-Light" transform="translate(49 72)">
								<g id="Lite-Beard">
									<path id="react-path-400_1_" class="st128" d="M195.3,63.1c-0.1-0.8-0.3-1.5-0.5-1.8c-0.1-0.2-0.2-0.3-0.3-0.3
										c0,0.1-0.1,0.1-0.1,0.2c-0.2,0.4-0.3,0.8-0.4,1.1c-3.1,9-1.8,19.9-2.5,29.2c-0.6,7.9-2.2,19.8-9.2,24.8
										c-3.6,2.6-10.1,7-14.8,5.8c-3.2-0.8-3.6-10.1-7.8-13.6c-4.8-3.9-10.8-5.7-16.9-5.4c-0.6,0-1.2,0-2,0.1h0
										c-2.6,0.1-6,0.4-7.8,1.8h-0.1c-0.1,0-0.2,0.1-0.2,0.2c-0.1-0.1-0.2-0.1-0.2-0.2h-0.1c-1.8-1.4-5.2-1.7-7.8-1.8h0
										c-0.8,0-1.4,0-2-0.1c-6-0.3-12.1,1.5-16.9,5.4c-4.2,3.5-4.6,12.7-7.8,13.6c-4.7,1.2-11.2-3.2-14.8-5.8
										c-7-5.1-8.7-16.9-9.3-24.8c-0.6-9.1,0.6-19.7-2.3-28.6c-0.2-0.6-0.4-1.1-0.6-1.7c0-0.1-0.1-0.1-0.1-0.2
										c-0.1,0-0.3,0.1-0.4,0.3c-0.2,0.3-0.4,1-0.4,1.9c-0.6,4.7,0.2,15.6,0.2,15.6v22.4c0,0.4,0,0.9,0,1.3
										c0.1,2.5,0.4,5.1,0.9,7.8v0c0,0,0,0,0,0s0,0,0,0c3,15.8,13.6,34.5,32.9,42.5c0.6,0.3,1.3,0.5,2.1,0.8
										c6.4,2.3,17.6,5.4,26.5,5.4c8.8,0,20.1-2.8,26.5-5c0.8-0.3,1.5-0.5,2.1-0.8c19.4-8,29.9-27,33-42.9
										c0.5-2.7,0.8-5.4,0.9-7.8c0-0.5,0-0.9,0-1.3V78.8C195.1,78.8,195.9,67.8,195.3,63.1z M106.5,122.1c1.4-3.7,3.6-7.8,7.6-9
										c4.3-1.3,10.3,0,14.6-0.9c1.4-0.3,2.9-0.8,4-1.6c1,0.8,2.5,1.3,3.9,1.6c4.3,0.9,10.3-0.4,14.6,0.9c4,1.2,6.2,5.3,7.6,9
										c2.6,7.2-1.7,13.7-6.9,18.5c-2.8,2.5-5.7,3.7-9.5,2.9c-0.6-0.1-3.3-5-9.8-5s-9.1,4.9-9.8,5c-3.7,0.8-6.7-0.3-9.5-2.9
										C108.2,135.8,103.9,129.2,106.5,122.1z"/>
								</g>
							</g>
							<g id="Short-Hair">
								<path id="react-path-397_1_" class="st128" d="M248.6,103c-0.3-3.7-0.8-7.3-1.7-10.9c-0.7-2.8-1.6-5.5-2.8-8.3
									c-0.7-1.6-2.2-3.9-2.4-5.6c-0.2-1.7,1.2-3.7,1.5-5.7c0.3-2,0.2-4-0.2-6c-0.9-4.4-4-8.6-8.7-9.7c-1-0.3-3.3,0.1-4-0.5
									c-0.9-0.7-1.4-3.1-2.2-4c-2.2-2.7-5.6-4.5-9.2-3.9c-2.7,0.5-1.1,1-3.1-0.6c-1.1-0.9-1.9-2.2-3-3.1c-1.6-1.4-3.5-2.6-5.4-3.6
									c-5-2.6-10.8-4.5-16.4-5.4c-10.2-1.7-21.2-0.2-31.1,2.4c-4.9,1.3-9.9,3-14.5,5.2c-2,0.9-3.1,1.7-5.1,2c-3.2,0.4-6,0.4-9,1.7
									c-9.4,4.2-13.6,14-10,23.3c0.7,1.9,1.7,3.5,3.1,5.1c1.7,1.8,2.3,1.5,0.8,3.6c-2.2,3.2-4,6.6-5.5,10.1
									c-3.9,9.3-4.5,19.7-4.3,29.6c0.1,3.5,0.2,7,0.8,10.4c0.2,1.3,0.3,3.5,1,4.8c0.1,0.2,0.3,0.4,0.4,0.6
									c0.4,0.3,0.8,0.6,1.3,0.7c0.3,0.1,0.6,0,0.9-0.1c0.2-0.1,0.4-0.1,0.6-0.2c1.1-0.6,0.6-1.8,0.7-3c0.2-6.5-0.1-12.2,1.5-18.6
									c1.1-4.7,3-9,5.5-13.3c3.1-5.4,6.5-10.1,10.8-14.7c1-1.1,1.2-1.5,2.6-1.6c1-0.1,2.5,0.6,3.5,0.9c2.2,0.5,4.4,1.1,6.6,1.4
									c4.1,0.7,8.2,0.7,12.4,0.6c8.2-0.3,16.4-0.8,24.4-2.9c5.3-1.4,9.9-3.8,15-5.6c0.1,0,1.4-0.9,1.6-0.9c0.3,0.1,2.2,2,2.5,2.3
									c2.5,1.9,5.1,2.7,7.8,4.2c0.7,0.4,1.1,0.6,1.3,0.7c0.1,0.1,0.2,0.4,0.6,0.8c0.5,0.7,0.8,1.9,1.2,2.7
									c1.3,2.4,3.2,4.5,5.4,6.2c2.1,1.6,5.4,2.4,6.5,4.5c0.9,1.6,1.1,3.8,1.8,5.6c1.8,4.6,4.2,8.8,6.5,13.1
									c1.9,3.5,4,6.5,4.2,10.4c0.1,0.9-0.5,4.9,0.1,6.7c0.2,0.7,0.6,1.1,1.3,0.8c0.2-0.1,0.4-0.2,0.6-0.4c0.1-0.1,0.3-0.5,0.5-1
									c0.5-1.4,1.1-3.7,1.2-4.3c0.9-2.9,1.2-5.9,1.5-8.9C248.9,114.6,249.1,108.9,248.6,103z M138.9,82.3
									C139,82.3,139,82.2,138.9,82.3C139.1,82.2,139.1,82.3,138.9,82.3z M130,65L130,65 M138.9,82.2c-0.1,0-0.2,0-0.4,0
									c-0.1,0-0.3,0-0.6,0c0.2,0,0.4,0,0.6,0C138.7,82.2,138.8,82.2,138.9,82.2"/>
							</g>
						</g>
					</g>
				</g>
			</g>
		</g>
	</g>
</g>
<path class="st133" d="M180,205.8c-4.6,0.1-8.7-0.8-12.3-3.5c-1.7-1.3-2.8-3.1-3.3-5.2c-0.3-1.4,0-2.6,1.5-3.1
	c1.5-0.5,2.4,0.3,2.9,1.7c0.8,2.4,2.7,3.9,5,4.7c4.8,1.7,9.6,1.6,14.2-0.9c1.6-0.8,2.6-2.2,3.2-3.9c0.4-1.4,1.4-2,2.8-1.6
	c1.5,0.4,1.8,1.7,1.6,3.1c-0.6,3-2.4,5-5,6.4C187.2,205.2,183.6,205.9,180,205.8z"/>
<g>
	<g id="Eyes_x2F_Surprised-_xD83D__xDE33__2_" transform="translate(0 8)">
		<circle id="The-White-Stuff_2_" class="st134" cx="152" cy="140.4" r="15.4"/>
		<circle id="Eye-Ball_2_" class="st134" cx="209.3" cy="140.4" r="15.4"/>
		<circle id="Eye_10_" class="st133" cx="152" cy="140.4" r="6.6"/>
		<circle id="Eye_8_" class="st133" cx="209.3" cy="140.4" r="6.6"/>
	</g>
	<path class="st135" d="M203.7,123.4c8-0.4,15,1.1,21.2,5.7c1.3,1,2.4,2.2,3.5,3.3c1.1,1.2,1,2.4-0.2,3.4c-1.2,0.9-2.3,0.5-3.2-0.5
		c-3.9-4.6-9.1-6.4-14.8-7.3c-3.6-0.6-7.1-0.3-10.7,0.4c-1.4,0.3-2.9,0.1-3.2-1.7c-0.4-1.9,0.9-2.6,2.5-2.8
		C200.5,123.7,202.3,123.2,203.7,123.4z"/>
	<path class="st135" d="M162.8,128.5c-1.5-0.2-2.8-0.4-4.1-0.5c-7.2-0.9-13.8,0.6-19.8,4.6c-1,0.6-1.8,1.4-2.5,2.4
		c-0.9,1.2-2.1,2-3.5,0.9c-1.5-1.2-1.1-2.5,0-3.7c3.4-4,7.9-6.3,12.8-7.6c5.5-1.5,11.1-1.5,16.7-0.5c1.5,0.3,2.4,1,2.3,2.6
		C164.9,128,163.9,128.5,162.8,128.5z"/>
</g>
</svg>
